<?xml version="1.0" encoding="UTF-8" standalone="no"?>
<svg
   xmlns:dc="http://purl.org/dc/elements/1.1/"
   xmlns:cc="http://creativecommons.org/ns#"
   xmlns:rdf="http://www.w3.org/1999/02/22-rdf-syntax-ns#"
   xmlns:svg="http://www.w3.org/2000/svg"
   xmlns="http://www.w3.org/2000/svg"
   xmlns:sodipodi="http://sodipodi.sourceforge.net/DTD/sodipodi-0.dtd"
   xmlns:inkscape="http://www.inkscape.org/namespaces/inkscape"
   height="51.0mm"
   width="51.0mm"
   inkscape:version="0.92.2 5c3e80d, 2017-08-06"
   sodipodi:docname="kitty.svg"
   xml:space="preserve"
   enable-background="new 336.0004 4.5466 1887.9996 1590.9063"
   viewBox="0 0 51.000000 51.000000"
   y="0px"
   x="0px"
   id="Layer_1"
   version="1.1"><sodipodi:namedview
     units="in"
     inkscape:current-layer="g874"
     inkscape:window-maximized="0"
     inkscape:window-y="187"
     inkscape:window-x="1043"
     inkscape:cy="56.581364"
     inkscape:cx="94.776235"
     inkscape:zoom="21.28933"
     showgrid="true"
     id="namedview30"
     inkscape:window-height="978"
     inkscape:window-width="1501"
     inkscape:pageshadow="2"
     inkscape:pageopacity="0"
     guidetolerance="10"
     gridtolerance="10"
     objecttolerance="10"
     borderopacity="1"
     bordercolor="#666666"
     pagecolor="#ffffff"
     borderlayer="true"
     inkscape:document-units="mm"><inkscape:grid
       spacingx="2.54"
       spacingy="2.54"
       empspacing="1"
       type="xygrid"
       units="mm"
       id="grid834" /></sodipodi:namedview><metadata
     id="metadata34"><rdf:RDF><cc:Work
         rdf:about=""><dc:format>image/svg+xml</dc:format><dc:type
           rdf:resource="http://purl.org/dc/dcmitype/StillImage" /><dc:title /></cc:Work></rdf:RDF></metadata><defs
     id="defs32" /><g
     style="display:inline"
     inkscape:label="[fixed] BG"
     inkscape:groupmode="layer"
     sodipodi:insensitive="true"
     id="g860"><rect
       x="0"
       y="0"
       width="51"
       height="51"
       style="fill:#ffffff;fill-opacity:1;stroke:none"
       id="rect858" /></g><g
     style="display:inline"
     inkscape:label="Edge.Cuts"
     inkscape:groupmode="layer"
     id="g862"><path
       style="color:#000000;font-style:normal;font-variant:normal;font-weight:normal;font-stretch:normal;font-size:medium;line-height:normal;font-family:sans-serif;font-variant-ligatures:normal;font-variant-position:normal;font-variant-caps:normal;font-variant-numeric:normal;font-variant-alternates:normal;font-feature-settings:normal;text-indent:0;text-align:start;text-decoration:none;text-decoration-line:none;text-decoration-style:solid;text-decoration-color:#000000;letter-spacing:normal;word-spacing:normal;text-transform:none;writing-mode:lr-tb;direction:ltr;text-orientation:mixed;dominant-baseline:auto;baseline-shift:baseline;text-anchor:start;white-space:normal;shape-padding:0;clip-rule:nonzero;display:inline;overflow:visible;visibility:visible;opacity:1;isolation:auto;mix-blend-mode:normal;color-interpolation:sRGB;color-interpolation-filters:linearRGB;solid-color:#000000;solid-opacity:1;vector-effect:none;fill:#000000;fill-opacity:1;fill-rule:nonzero;stroke:none;stroke-width:0.27180421;stroke-linecap:butt;stroke-linejoin:miter;stroke-miterlimit:4;stroke-dasharray:none;stroke-dashoffset:0;stroke-opacity:1;color-rendering:auto;image-rendering:auto;shape-rendering:auto;text-rendering:auto;enable-background:accumulate"
       d="M31.862892 0.42907L31.770402 0.431446L31.677162 0.439115L31.586112 0.4516283L31.493742 0.4693136L31.403542 0.4913627L31.315392 0.5174075L31.227042 0.5479111L31.140322 0.5820763L31.055282 0.6195983L30.962302 0.6560678L30.869952 0.6941978L30.778312 0.7339201L30.687472 0.775161L30.597502 0.8178416L30.508482 0.8618787L30.420472 0.9071849L30.333542 0.9536698L30.247752 1.00124L30.161532 1.050746L30.076662 1.101142L29.991672 1.153265L29.908212 1.20606L29.824902 1.260349L29.743282 1.315077L29.662062 1.371047L29.581412 1.428116L29.501472 1.486137L29.422392 1.544959L29.344292 1.604427L29.266242 1.665225L29.188482 1.727141L29.112222 1.789156L29.035692 1.852671L28.960112 1.916641L28.885672 1.980843L28.811742 2.045767L28.738602 2.111122L28.665072 2.177935L28.591632 2.245759L28.520002 2.312943L28.447972 2.381517L28.376152 2.450878L28.305112 2.520432L28.235372 2.589609L28.165612 2.659671L28.096682 2.729731L28.027842 2.800492L27.958832 2.872191L27.891052 2.943333L27.822512 3.015973L27.755472 3.087668L27.688682 3.159704L27.621312 3.232949L27.554032 3.306643L27.487422 3.380103L27.420832 3.454012L27.354632 3.527903L27.290452 3.599986L27.226052 3.67281L27.161712 3.74607L27.097682 3.819468L27.034212 3.892715L26.971542 3.965534L26.908712 4.039023L26.846112 4.112727L26.784112 4.186209L26.722082 4.26021L26.660532 4.33413L26.599072 4.40842L26.538322 4.482338L26.476682 4.557828L26.415862 4.6328L26.355462 4.707747L26.294922 4.783352L26.234772 4.858972L26.174982 4.93462L26.114842 5.011206L26.055752 5.08695L25.996632 5.163228L25.937312 5.240263L25.878942 5.316557L25.820832 5.393L25.763502 5.474898L25.709522 5.55895L25.657282 5.643481L25.631742 5.685442L25.605392 5.728978L25.579882 5.771248L25.553742 5.81462L25.502062 5.900192L25.476252 5.942716L25.450022 5.985716L25.423842 6.028346L25.397322 6.071217L25.344532 6.155361L25.290722 6.23921L25.235962 6.322173L25.179852 6.404299L25.122382 6.484942L25.062852 6.564193L25.000522 6.641824L24.935222 6.716357L24.900862 6.752392L24.864632 6.787738L24.788562 6.851809L24.703682 6.903668L24.657552 6.921045L24.607212 6.929225L24.507412 6.932655L24.408482 6.935805L24.310452 6.938705L24.212172 6.941415L24.113742 6.943955L24.015262 6.946345L23.916832 6.948605L23.818542 6.950755L23.719432 6.952835L23.619672 6.954865L23.520412 6.956845L23.421732 6.958805L23.321832 6.960805L23.222772 6.962825L23.122832 6.964925L23.023962 6.967095L22.924542 6.969385L22.826412 6.971785L22.728042 6.974355L22.629632 6.977105L22.531362 6.980065L22.431982 6.983295L22.333212 6.986775L22.233872 6.990565L22.135562 6.994625L22.035942 6.999085L21.937832 7.003835L21.839072 7.009005L21.740062 7.014605L21.641202 7.020635L21.542862 7.027095L21.443482 7.034115L21.345512 7.041545L21.295662 7.045525L21.245812 7.049645L21.146872 7.058245L21.047692 7.067455L20.949062 7.077225L20.850372 7.087638L20.751342 7.098746L20.653152 7.110436L20.554782 7.122844L20.455882 7.136047L20.358412 7.149794L20.261092 7.16427L20.162552 7.179712L20.064512 7.195883L19.967672 7.212665L19.870272 7.230377L19.821152 7.239637L19.772012 7.249117L19.674802 7.268528L19.577492 7.288852L19.482182 7.309327L19.386392 7.33019L19.290232 7.351435L19.193812 7.373055L19.097252 7.395043L19.000642 7.41739L18.904102 7.440088L18.807722 7.463126L18.711612 7.486494L18.615872 7.51018L18.520592 7.534171L18.425862 7.558452L18.331772 7.583009L18.236642 7.608297L18.142422 7.633818L18.047512 7.660018L17.953762 7.686402L17.859662 7.713404L17.765422 7.740985L17.671242 7.769104L17.577322 7.797717L17.483852 7.82678L17.391002 7.856244L17.297682 7.886477L17.204192 7.917405L17.112012 7.948547L17.019012 7.980635L16.925612 8.01356L16.833252 8.046828L16.740202 8.081083L16.647902 8.115813L16.556702 8.150888L16.465222 8.18685L16.374032 8.223496L16.283682 8.260618L16.193252 8.298603L16.103482 8.337158L16.013832 8.376532L15.924062 8.416855L15.834222 8.458135L15.744632 8.500252L15.656692 8.542541L15.568562 8.585894L15.481002 8.62996L15.393992 8.674759L15.306502 8.720853L15.220562 8.767182L15.134612 8.814594L15.048412 8.863256L14.963642 8.912233L14.879312 8.962097L14.836352 8.987868L14.793512 9.013711L14.750692 9.039699L14.707992 9.06576L14.665332 9.091942L14.622792 9.118198L14.538012 9.170977L14.453732 9.22405L14.370022 9.27737L14.286952 9.33089L14.244872 9.358234L14.202902 9.385661L14.119722 9.440497L14.037462 9.49535L13.954642 9.551212L13.872942 9.606956L13.790972 9.663531L13.749882 9.692133L13.708902 9.720827L13.628252 9.777781L13.547762 9.83528L13.467582 9.893213L13.387862 9.951471L13.307582 10.010807L13.228132 10.070207L13.148562 10.130367L13.070152 10.190327L13.030542 10.220877L12.991022 10.251517L12.912472 10.312947L12.834722 10.374447L12.757092 10.436527L12.679892 10.498957L12.603402 10.561487L12.526412 10.625117L12.487872 10.657227L12.449412 10.689457L12.411102 10.721737L12.372862 10.754127L12.297182 10.818757L12.221612 10.883987L12.146742 10.949307L12.072102 11.015107L11.997482 11.081587L11.923762 11.147947L11.850172 11.214867L11.813282 11.248677L11.776442 11.282607L11.704032 11.349797L11.631972 11.417327L11.595592 11.451677L11.559252 11.486157L11.487132 11.555087L11.416132 11.623607L11.344942 11.692967L11.309132 11.728107L11.273352 11.763377L11.202742 11.833477L11.132262 11.904097L11.076352 11.977727L11.022392 12.050967L10.967272 12.125357L10.912152 12.198197L10.855442 12.270717L10.797972 12.341027L10.737242 12.411097L10.675042 12.477417L10.608862 12.540607L10.537092 12.598327L10.457352 12.644957L10.368772 12.664897L10.277142 12.657697L10.186402 12.643717L10.097402 12.624857L10.008752 12.602087L9.921718 12.576707L9.834817 12.549067L9.74853 12.519997L9.662179 12.489897L9.57636 12.459667L9.489226 12.429497L9.396087 12.400567L9.302578 12.373487L9.209045 12.348227L9.114819 12.324477L9.020341 12.302237L8.926044 12.281497L8.830572 12.261857L8.734578 12.243377L8.638699 12.226087L8.542031 12.209737L8.445423 12.194387L8.349681 12.180067L8.253077 12.166427L8.156858 12.153577L8.060079 12.141307L7.964363 12.129737L7.867725 12.118557L7.771063 12.107797L7.67442 12.097387L7.57783 12.087257L7.480169 12.077217L7.382493 12.067317L7.286869 12.057617L7.189584 12.047717L7.092996 12.037817L6.995621 12.028017L6.897135 12.018717L6.798879 12.010017L6.700924 12.002017L6.602158 11.994617L6.503866 11.987817L6.406112 11.981717L6.30784 11.976217L6.209172 11.971317L6.11023 11.967117L6.011135 11.963517L5.912005 11.960617L5.812958 11.958417L5.714109 11.956917L5.61557 11.956122L5.517452 11.956034L5.41986 11.956655L5.321102 11.958055L5.223167 11.960155L5.124448 11.963055L5.025179 11.966655L4.927197 11.971055L4.829024 11.976255L4.730879 11.982255L4.632976 11.989055L4.53411 11.996755L4.435992 12.005255L4.33881 12.014555L4.240218 12.024845L4.143111 12.035885L4.045317 12.047925L3.947278 12.060945L3.84942 12.074915L3.75215 12.089785L3.65585 12.105495L3.559055 12.122315L3.462398 12.140155L3.366477 12.158925L3.270324 12.178835L3.17475 12.199745L3.079181 12.221805L2.983374 12.245105L2.888525 12.269385L2.793658 12.294905L2.698455 12.321805L2.604874 12.349545L2.510201 12.378965L2.417602 12.409105L2.324283 12.440905L2.231548 12.473965L2.139045 12.508445L2.046541 12.544495L1.955849 12.581415L1.865914 12.619635L1.775753 12.660295L1.686625 12.703655L1.598849 12.749705L1.512721 12.798425L1.427568 12.850375L1.345597 12.904305L1.265193 12.961355L1.186724 13.021445L1.110527 13.084485L1.036904 13.150365L0.9661239 13.218945L0.897265 13.291335L0.8318725 13.366095L0.7700975 13.443035L0.7120559 13.521935L0.6570367 13.603815L0.6053319 13.688395L0.5578114 13.774175L0.5133153 13.863275L0.4731739 13.952975L0.436417 14.045275L0.4036328 14.138635L0.3748029 14.232715L0.349613 14.328195L0.3281106 14.424635L0.3102841 14.521575L0.2960683 14.618585L0.285182 14.717015L0.277667 14.816215L0.273483 14.915535L0.27251595 15.014355L0.27464295 15.113525L0.27974595 15.212235L0.28774695 15.310975L0.29845035 15.408755L0.30490935 15.458295L0.31207135 15.507955L0.32800845 15.604875L0.34657975 15.702215L0.36770305 15.799655L0.39113045 15.896335L0.41676495 15.992225L0.44451575 16.087305L0.47435945 16.181735L0.50634745 16.275835L0.54011405 16.368715L0.57560345 16.460475L0.61317365 16.552145L0.65217065 16.642865L0.69265525 16.733465L0.73457755 16.823845L0.77788205 16.913905L0.80004665 16.958815L0.82250825 17.003555L0.84530395 17.048215L0.86839085 17.092715L0.89178335 17.137085L0.91546055 17.181295L0.93941335 17.225335L0.96364395 17.269225L0.98811905 17.312895L1.01286445 17.356415L1.06304245 17.442815L1.11409645 17.528345L1.16594245 17.612945L1.21849445 17.696565L1.24547845 17.738715L1.27269845 17.780725L1.32741545 17.863705L1.35537845 17.905395L1.38356445 17.946935L1.44001945 18.028795L1.46874145 18.069785L1.49767245 18.110645L1.55541645 18.190965L1.61411345 18.271035L1.67362145 18.350695L1.73379545 18.429785L1.79449045 18.508185L1.85555845 18.585745L1.91770945 18.663415L1.98073045 18.740945L2.04359645 18.817135L2.10773545 18.893755L2.17209745 18.969585L2.23647145 19.044435L2.30135845 19.118935L2.33454045 19.156685L2.36783645 19.194345L2.43415345 19.268695L2.46766945 19.305955L2.50128545 19.343125L2.56760845 19.415895L2.63513645 19.489255L2.66916745 19.525965L2.70327745 19.562585L2.77145545 19.635285L2.83912245 19.706845L2.90752145 19.778605L2.97579145 19.849705L3.04462645 19.920905L3.11425945 19.992465L3.14935345 20.028365L3.18448045 20.064205L3.21956145 20.099895L3.25466845 20.135515L3.32481345 20.206435L3.39491045 20.276995L3.46510145 20.347375L3.53564945 20.417875L3.57119545 20.453315L3.60673345 20.488705L3.67694945 20.558505L3.74709645 20.628105L3.81599245 20.696025L3.88535645 20.763745L3.95497045 20.831065L4.02544245 20.898575L4.09647145 20.965995L4.16776045 21.033045L4.23902045 21.099465L4.30997045 21.165025L4.38167345 21.230705L4.45367845 21.296105L4.52555045 21.360845L4.59800645 21.425575L4.67045145 21.489775L4.74332045 21.553835L4.81587645 21.617125L4.88915745 21.680565L4.96211345 21.743245L5.03594645 21.806205L5.11045145 21.869275L5.18498645 21.931915L5.25955645 21.994135L5.33505245 22.056675L5.40971045 22.118095L5.48488045 22.179515L5.56077345 22.241105L5.63590645 22.301675L5.71114845 22.361945L5.78802945 22.420325L5.86668945 22.475785L5.94789245 22.531065L6.02838645 22.586035L6.10767045 22.642495L6.18516345 22.702405L6.25767545 22.765895L6.32542545 22.836405L6.38447145 22.913955L6.43158945 22.998125L6.46511345 23.089425L6.48334745 23.183885L6.48291365 23.282205L6.48297875 23.332275L6.48323615 23.382345L6.48368595 23.432475L6.48432625 23.482605L6.48615625 23.581395L6.48873625 23.680785L6.49205625 23.779935L6.49610625 23.878855L6.50094625 23.978735L6.50644625 24.077265L6.51269625 24.176225L6.51973625 24.275905L6.52740625 24.374375L6.53578625 24.472785L6.54463625 24.569845L6.55399625 24.667465L6.56386625 24.765525L6.57425325 24.863915L6.58516425 24.962525L6.59646925 25.060125L6.60816125 25.156685L6.62037025 25.253235L6.63309425 25.349685L6.64661925 25.447975L6.66066125 25.545865L6.67521225 25.643255L6.69026425 25.740065L6.70580425 25.836195L6.72212725 25.933365L6.73891625 26.029605L6.75646725 26.126525L6.77445025 26.222255L6.79316025 26.318335L6.81257725 26.414555L6.83267525 26.510715L6.85342625 26.606615L6.87479625 26.702055L6.89706825 26.798215L6.92019625 26.894775L6.94381425 26.990165L6.96818425 27.085435L6.99324425 27.180295L7.01923225 27.275585L7.04606125 27.370895L7.07363625 27.465835L7.10185425 27.560035L7.13060625 27.653145L7.16033525 27.746575L7.19087625 27.839735L7.22205325 27.932085L7.25419225 28.024555L7.28704525 28.116385L7.32129225 28.209405L7.35608525 28.301235L7.39192625 28.393195L7.42871325 28.484965L7.46586125 28.575095L7.50415025 28.665485L7.54327225 28.755355L7.58379625 28.845955L7.62503625 28.935695L7.66667425 29.023915L7.70946925 29.112225L7.75357425 29.200865L7.79814125 29.288125L7.84368625 29.375025L7.86715425 29.419205L7.89067525 29.463465L7.93718725 29.550805L7.98428725 29.638915L8.00801425 29.683135L8.03182525 29.727365L8.05569125 29.771555L8.07965325 29.815745L8.10358725 29.859705L8.12762525 29.903655L8.17559925 29.990705L8.19990825 30.034455L8.22434125 30.078165L8.24890125 30.121825L8.27359625 30.165435L8.32311425 30.251945L8.34819725 30.295275L8.37343625 30.338515L8.42419825 30.424395L8.47504225 30.508885L8.52695825 30.593515L8.57935325 30.677185L8.63282025 30.760725L8.66011025 30.802635L8.68761625 30.844375L8.71552025 30.886195L8.74365425 30.927835L8.77196125 30.969195L8.80050825 31.010345L8.85822725 31.091855L8.91686625 31.172345L8.97660725 31.251945L9.03774725 31.330915L9.06898925 31.370305L9.10052925 31.409415L9.16377225 31.485865L9.22824125 31.561125L9.29002525 31.636175L9.35184325 31.713285L9.41241425 31.790305L9.47268125 31.867885L9.53243325 31.945265L9.59235425 32.022865L9.65209525 32.099795L9.71289025 32.177195L9.77411325 32.253835L9.83652325 32.330215L9.89922425 32.404835L9.96367425 32.478995L10.02945725 32.551745L10.09671725 32.622805L10.16560725 32.691875L10.23713725 32.759455L10.31077725 32.824475L10.38510725 32.885345L10.46322725 32.944115L10.54351725 32.998975L10.61960725 33.062235L10.69621725 33.125355L10.77307725 33.188055L10.84991725 33.250075L10.92729725 33.311815L11.00486725 33.372955L11.08302725 33.433755L11.16134725 33.493835L11.24073725 33.553835L11.32058725 33.613245L11.40031725 33.671595L11.48047725 33.729265L11.56133725 33.786405L11.64199725 33.842345L11.72333725 33.897675L11.80570725 33.952595L11.88895725 34.006955L11.97244725 34.060305L12.05623725 34.112685L12.14039725 34.164115L12.22598725 34.215225L12.31087725 34.264735L12.39743725 34.314025L12.48403725 34.362135L12.57172725 34.409655L12.65698725 34.454245L12.74393725 34.497725L12.83115725 34.539435L12.91829725 34.579315L13.00677725 34.618095L13.09602725 34.655585L13.18550725 34.691655L13.27469725 34.726205L13.36450725 34.759705L13.45553725 34.792455L13.54684725 34.824205L13.63868725 34.855155L13.72996725 34.885055L13.82162725 34.914325L13.91400725 34.943175L14.00685725 34.971645L14.09797725 34.999165L14.19043725 35.026795L14.28264725 35.054145L14.37571725 35.081665L14.46727725 35.108755L14.55983725 35.136255L14.65160725 35.163745L14.74366725 35.191635L14.84032725 35.213525L14.93697725 35.234165L14.98611725 35.244205L15.03536725 35.253905L15.13345725 35.272405L15.23113725 35.289675L15.32830725 35.305745L15.42656725 35.320895L15.47608725 35.328095L15.52569725 35.335095L15.62386725 35.348125L15.72255725 35.360215L15.82154725 35.371355L15.92062725 35.381545L16.01959725 35.390745L16.06958725 35.395145L16.11963725 35.399145L16.21907725 35.406645L16.31772725 35.413245L16.36779725 35.416245L16.41791725 35.419045L16.51678725 35.423945L16.61648725 35.428145L16.66652725 35.429945L16.71659725 35.431545L16.76662725 35.432945L16.81669725 35.434245L16.91638725 35.436145L17.01527725 35.437345L17.11485725 35.437851L17.21448725 35.437682L17.31357725 35.436863L17.41311725 35.435363L17.51229725 35.433263L17.61170725 35.430563L17.71033725 35.427363L17.80960725 35.423563L17.90809725 35.419263L18.00742725 35.414363L18.05737725 35.411663L18.10730725 35.408863L18.20688725 35.402863L18.30616725 35.396463L18.40516725 35.389563L18.50410725 35.382263L18.60337725 35.374463L18.65333725 35.370363L18.70325725 35.366163L18.80179725 35.357563L18.90013725 35.348563L18.98057725 35.400553L19.05819725 35.457653L19.13226725 35.519073L19.20279725 35.584473L19.26978725 35.653513L19.33399725 35.726743L19.39467725 35.803113L19.45066725 35.880613L19.50413725 35.961933L19.55373725 36.044813L19.59580725 36.121923L19.63522725 36.201113L19.67185725 36.282023L19.70529725 36.363563L19.73553725 36.445473L19.76320725 36.529633L19.78745725 36.613863L19.80866725 36.700273L19.77565725 36.742883L19.74326725 36.786543L19.68891725 36.865983L19.63848725 36.948423L19.59222725 37.033363L19.55029725 37.120283L19.51279725 37.208633L19.47913725 37.299633L19.45009725 37.390843L19.42514725 37.483363L19.40436725 37.576453L19.38751725 37.670873L19.37469725 37.765683L19.36579725 37.861283L19.36089725 37.956533L19.35979725 38.053773L19.36259725 38.149093L19.36929725 38.245123L19.37986725 38.341423L19.39425725 38.436993L19.41241725 38.531673L19.43431725 38.625323L19.45997725 38.717973L19.48950725 38.809823L19.52303725 38.900923L19.55987725 38.989343L19.60036725 39.075953L19.64283725 39.155213L19.67380725 39.246153L19.70653725 39.335323L19.74163725 39.425033L19.77818725 39.513403L19.81640725 39.601433L19.85609725 39.688993L19.89659725 39.774993L19.93887725 39.861713L19.98169725 39.946853L20.02607725 40.032633L20.07103725 40.117293L20.11694725 40.201723L20.16441725 40.287033L20.21263725 40.371753L20.26201725 40.456643L20.31202725 40.540843L20.36287725 40.624743L20.41459725 40.708423L20.46641725 40.790673L20.51991725 40.874013L20.57378725 40.956343L20.62865725 41.038643L20.68357725 41.119453L20.73945725 41.200103L20.79567725 41.279633L20.85313725 41.359223L20.91108725 41.437693L20.96989725 41.515393L21.03014725 41.592813L21.03334725 41.590313L21.09090725 41.650273L21.15316725 41.705673L21.23169725 41.765013L21.31451725 41.818733L21.39909725 41.865923L21.48668725 41.908003L21.57662725 41.945153L21.66822725 41.977633L21.76254725 42.006223L21.85706725 42.030603L21.95274725 42.051483L22.04876725 42.069073L22.14577725 42.083843L22.24276725 42.095943L22.34004725 42.105743L22.43764725 42.113443L22.53528725 42.119343L22.63340725 42.123643L22.73089725 42.126543L22.82888725 42.128343L22.92713725 42.12914L23.02543725 42.129184L23.12275725 42.1287L23.22065725 42.127914L23.31796725 42.127083L23.41538725 42.126482L23.51300725 42.126438L23.61110725 42.126726L23.71003725 42.126888L23.80968725 42.126926L23.90743725 42.126847L24.00578725 42.126655L24.10462725 42.126353L24.20384725 42.125945L24.30334725 42.125435L24.40302725 42.124829L24.50166725 42.124138L24.60033725 42.123363L24.69999725 42.122498L24.79943725 42.121559L24.89856725 42.120559L24.99730725 42.119459L25.09555725 42.118359L25.19324725 42.117159L25.29211725 42.115959L25.39015725 42.114659L25.48903725 42.113359L25.58684725 42.111959L25.68516725 42.110559L25.78378725 42.109159L25.88250725 42.107759L25.98113725 42.106259L26.07947725 42.104759L26.17734725 42.103259L26.27592725 42.101759L26.37489725 42.100259L26.47270725 42.098759L26.57161725 42.097259L26.67119725 42.095759L26.76991725 42.094359L26.86965725 42.092959L26.96886725 42.091559L27.06718725 42.090259L27.16610725 42.088959L27.26501725 42.087659L27.36333725 42.086459L27.46206725 42.085259L27.56041725 42.084159L27.65898725 42.083159L27.75679725 42.082189L27.85642725 42.081274L27.95617725 42.080436L28.05447725 42.079693L28.15340725 42.079031L28.25211725 42.078462L28.35063725 42.077989L28.45014725 42.077614L28.54834725 42.077349L28.64702725 42.077192L28.74648725 42.077151L28.84478725 42.07723L28.94308725 42.077432L29.04204725 42.07773L29.14059725 42.078065L29.23998725 42.078437L29.29005725 42.078636L29.34012725 42.078842L29.43962725 42.079272L29.53845725 42.079721L29.63779725 42.080191L29.73753725 42.080678L29.78754725 42.080927L29.83756725 42.081178L29.88767725 42.081431L29.93778725 42.081686L30.03697725 42.082192L30.13620725 42.082697L30.18631725 42.082951L30.23643725 42.083204L30.28644725 42.083453L30.33645725 42.0837L30.43617725 42.084183L30.53550725 42.084648L30.63435725 42.08509L30.73264725 42.085507L30.83212725 42.085901L30.93078725 42.086261L31.03028725 42.086589L31.12872725 42.086874L31.22767725 42.087119L31.32693725 42.087317L31.42629725 42.087466L31.52555725 42.087559L31.62453725 42.087595L31.72303725 42.087569L31.82225725 42.087477L31.92186725 42.087315L32.02030725 42.087081L32.11984725 42.086768L32.16995725 42.08658L32.22006725 42.08637L32.31941725 42.08589L32.41871725 42.085321L32.51860725 42.084655L32.61758725 42.083898L32.71716725 42.083036L32.81672725 42.082069L32.91568725 42.080969L33.01505725 42.079769L33.11402725 42.078469L33.21320725 42.077069L33.31161725 42.075569L33.36172725 42.074741L33.41184725 42.073869L33.51112725 42.072069L33.61010725 42.070169L33.70970725 42.068069L33.80907725 42.065869L33.90823725 42.063469L33.95831725 42.062169L34.00838725 42.060969L34.10720725 42.058269L34.20649725 42.055469L34.25651725 42.053969L34.30653725 42.052469L34.40540725 42.049269L34.50425725 42.045969L34.60293725 42.046888L34.70132725 42.047701L34.79924725 42.048416L34.89787725 42.049046L34.99690725 42.049596L35.09476725 42.050064L35.19372725 42.050468L35.29335725 42.05081L35.39213725 42.051094L35.49193725 42.05133L35.59120725 42.051522L35.68958725 42.051677L35.78856725 42.051804L35.88753725 42.051909L35.98591725 42.051998L36.08470725 42.052079L36.18311725 42.052157L36.28174725 42.05224L36.37961725 42.052335L36.47930725 42.052449L36.57911725 42.05259L36.67748725 42.05276L36.77647725 42.05297L36.87524725 42.053225L36.97382725 42.053531L37.07340725 42.0539L37.17167725 42.05433L37.27042725 42.054834L37.36994725 42.055423L37.46830725 42.05609L37.56666725 42.056849L37.66429725 42.057217L37.76345725 42.058717L37.86129725 42.061217L37.95996725 42.064617L38.05903725 42.068717L38.15809725 42.073417L38.25673725 42.078517L38.35458725 42.083917L38.45310725 42.089517L38.55167725 42.095217L38.64969725 42.100717L38.74814725 42.106017L38.84622725 42.110917L38.94451725 42.115417L39.04202725 42.119217L39.14014725 42.122317L39.23747725 42.124517L39.33561725 42.125617L39.43428725 42.125595L39.53262725 42.124295L39.63064725 42.121495L39.72951725 42.117095L39.82691725 42.110995L39.92461725 42.103095L40.02288725 42.093075L40.11979725 42.081045L40.21648725 42.066775L40.31113725 42.050065L40.40619725 42.029885L40.50079725 42.006085L40.59301725 41.978955L40.68461725 41.947795L40.77478725 41.912605L40.86286725 41.873495L40.94997725 41.829775L41.03526725 41.781685L41.11807725 41.729565L41.19791725 41.673875L41.27444725 41.615165L41.34945725 41.552315L41.42042725 41.487835L41.48980725 41.420015L41.55690725 41.349905L41.62186725 41.277905L41.68521725 41.203945L41.74609725 41.129615L41.80647725 41.053065L41.86473725 40.976865L41.92216725 40.899875L41.97965725 40.821315L42.03684725 40.742095L42.09276725 40.663985L42.14881725 40.585405L42.20582725 40.505525L42.24466725 40.417135L42.28555725 40.329135L42.32789725 40.241635L42.37052725 40.155795L42.41387725 40.069615L42.45710725 39.983615L42.49976725 39.897585L42.54190725 39.810285L42.58208725 39.723535L42.62058725 39.635575L42.65702725 39.545925L42.69024725 39.456125L42.72023725 39.364955L42.81907725 39.360055L42.91737725 39.354655L43.01503725 39.348755L43.11446725 39.342155L43.21303725 39.335055L43.31066725 39.327455L43.40971725 39.319155L43.50763725 39.310355L43.60673725 39.300855L43.70452725 39.290835L43.80326725 39.280095L43.90053725 39.268885L43.99853725 39.256945L44.09712725 39.244265L44.19399725 39.231135L44.29124725 39.217285L44.38873725 39.202705L44.48632725 39.187395L44.58388725 39.171355L44.68128725 39.154595L44.77838725 39.137125L44.87506725 39.118955L44.97120725 39.100095L45.06844725 39.080195L45.16481725 39.059635L45.26187725 39.038065L45.35775725 39.015875L45.45392725 38.992705L45.55015725 38.968585L45.64472725 38.943935L45.74041725 38.918005L45.83548725 38.891235L45.93104725 38.863275L46.02546725 38.834565L46.11978725 38.804775L46.21368725 38.773975L46.30795725 38.741865L46.40002725 38.709305L46.49180725 38.675615L46.58481725 38.640165L46.67653725 38.603865L46.76833725 38.566135L46.85959725 38.527175L46.94973725 38.487205L47.03963725 38.445785L47.12852725 38.403235L47.21690725 38.359275L47.30497725 38.313735L47.39161725 38.267145L47.47768725 38.219005L47.56344725 38.169085L47.64711725 38.118395L47.73109725 38.065405L47.81254725 38.011865L47.89295725 37.956785L47.97324725 37.899425L48.05253725 37.840295L48.13098725 37.779185L48.20703725 37.717255L48.28156725 37.653795L48.35517725 37.588745L48.42860725 37.521915L48.50061725 37.454415L48.57117725 37.386285L48.64129725 37.316535L48.71084725 37.245235L48.77875725 37.173485L48.84501725 37.101325L48.91050725 37.027805L48.97511725 36.953015L49.03875725 36.877025L49.10133725 36.799925L49.16277725 36.721805L49.22300725 36.642755L49.28195725 36.562855L49.33956725 36.482215L49.39578725 36.400915L49.45056725 36.319045L49.50387725 36.236715L49.55674725 36.152285L49.60797725 36.067635L49.65755725 35.982865L49.70638725 35.896435L49.75345725 35.810135L49.79958725 35.722495L49.84465725 35.633715L49.88782725 35.545485L49.92981725 35.456435L49.97053725 35.366755L50.00991725 35.276645L50.04844725 35.184945L50.08545725 35.093265L50.12090725 35.001805L50.15523725 34.909505L50.18832725 34.816665L50.22048725 34.722435L50.25084725 34.629435L50.28008725 34.535695L50.30809725 34.441605L50.33478725 34.347545L50.36058725 34.252025L50.38530725 34.155665L50.40878725 34.059065L50.43092725 33.962815L50.45196725 33.865955L50.47174725 33.769275L50.49040725 33.672205L50.50778725 33.575715L50.52415725 33.478435L50.53929725 33.381745L50.55346725 33.284065L50.56661725 33.185675L50.57863725 33.087415L50.58956725 32.989275L50.59956725 32.890095L50.60836725 32.792185L50.61616725 32.693775L50.62296725 32.594595L50.62866725 32.496585L50.63336725 32.398605L50.63716725 32.299865L50.64006725 32.201445L50.64216725 32.102065L50.64336725 32.003155L50.64369625 31.904775L50.64318525 31.805695L50.64178525 31.706035L50.64080025 31.655965L50.63960025 31.605905L50.63660025 31.506625L50.63290025 31.408235L50.62840025 31.309625L50.62310025 31.210905L50.61710025 31.112195L50.61040025 31.013585L50.60300025 30.915185L50.59490025 30.817095L50.59050025 30.767245L50.58590025 30.717425L50.57630025 30.618365L50.56609025 30.520005L50.56069025 30.470285L50.55509025 30.420595L50.54356025 30.322165L50.53131025 30.223045L50.51859025 30.125155L50.50521025 30.026925L50.49121025 29.928585L50.47663025 29.830335L50.46152025 29.732375L50.44592025 29.634905L50.42965025 29.536735L50.41276025 29.438195L50.39555025 29.340885L50.38665025 29.291665L50.37765025 29.242505L50.35953025 29.145865L50.34084025 29.048825L50.32167025 28.951815L50.30210025 28.855235L50.28183025 28.757495L50.26139025 28.661125L50.24049025 28.564685L50.21890025 28.467115L50.19717025 28.370835L50.17511025 28.274895L50.16371025 28.226075L50.15226025 28.177345L50.12923025 28.080735L50.10571025 27.983665L50.09379025 27.935015L50.08177025 27.886475L50.05783025 27.790735L50.03339025 27.694405L50.00867025 27.598335L49.98368025 27.502495L49.95843025 27.406875L49.93261025 27.310305L49.91957025 27.261965L49.90650025 27.213765L49.88035025 27.118115L49.85391025 27.022435L49.82736025 26.927295L49.80008025 26.831725L49.78600025 26.783785L49.77160025 26.735605L49.75698025 26.687625L49.74196025 26.639435L49.72678025 26.591665L49.71121025 26.543715L49.69551025 26.496375L49.67943025 26.448895L49.64670025 26.355405L49.61255025 26.262095L49.59477025 26.215135L49.57655025 26.168125L49.53948025 26.075735L49.52019025 26.029305L49.50043025 25.982875L49.46026025 25.891785L49.43948025 25.846335L49.41822025 25.800925L49.37478025 25.711455L49.32947025 25.622545L49.30603025 25.578205L49.28206025 25.533985L49.23347025 25.447585L49.20815025 25.404205L49.18228025 25.360975L49.13013025 25.277025L49.07610025 25.194265L49.04807025 25.152925L49.01947025 25.111795L48.96167025 25.031755L48.93168025 24.991765L48.90109025 24.952025L48.83884025 24.874225L48.80681025 24.835725L48.77418025 24.797495L48.77418025 24.781465L48.72235025 24.728665L48.67066025 24.676005L48.61853025 24.622895L48.55027025 24.557035L48.47927025 24.495605L48.40499025 24.438125L48.32768025 24.384865L48.24757025 24.336085L48.16391025 24.291525L48.07770025 24.251935L47.99100025 24.218185L47.90216025 24.189555L47.81027025 24.165975L47.71243025 24.147565L47.61337025 24.135935L47.51515025 24.131235L47.41634025 24.133335L47.36661025 24.137035L47.31676025 24.142535L47.21999025 24.158455L47.12366025 24.181505L47.02945025 24.211455L46.93737025 24.248355L46.89227025 24.269385L46.84755025 24.292275L46.76206025 24.342125L46.68101025 24.397485L46.68101025 24.397539L46.60396025 24.458779L46.53128025 24.526149L46.46448025 24.598299L46.40319025 24.675469L46.34810025 24.756459L46.29846025 24.842009L46.25507025 24.930149L46.21750025 25.020729L46.18535025 25.113729L46.15851025 25.208309L46.13653025 25.304739L46.11934025 25.401479L46.11224025 25.451129L46.10614025 25.500859L46.09704025 25.596739L46.09084025 25.692859L46.08744025 25.787759L46.08634025 25.882729L46.08729525 25.978169L46.08989525 26.074229L46.09259525 26.170219L46.09259525 26.170382L46.09439525 26.270242L46.09809525 26.370172L46.10369525 26.469932L46.11109525 26.569292L46.12009525 26.668032L46.13070525 26.765942L46.14294525 26.864132L46.15673525 26.962252L46.16423525 27.011752L46.17213525 27.061172L46.18870525 27.158112L46.20668525 27.255142L46.22594525 27.351812L46.23619525 27.400822L46.24678525 27.449702L46.26861525 27.546222L46.29169525 27.642792L46.31582525 27.738782L46.34121525 27.835162L46.36760525 27.931072L46.39511525 28.027092L46.42340525 28.122172L46.45283525 28.217692L46.48258525 28.311142L46.51350525 28.405362L46.54546525 28.500012L46.57813525 28.594192L46.61099525 28.686572L46.64458525 28.778842L46.67928525 28.872102L46.71468525 28.965332L46.75041525 29.057632L46.78704525 29.150612L46.82363525 29.242002L46.86018525 29.334132L46.89514525 29.425612L46.92909525 29.518142L46.96173525 29.611182L46.99281525 29.704232L47.02265525 29.798482L47.05093525 29.893232L47.07741525 29.987842L47.10227525 30.083072L47.12556525 30.179372L47.14700525 30.275702L47.16641525 30.371102L47.18442525 30.468692L47.20064525 30.566592L47.21509525 30.664702L47.22774525 30.762362L47.23870525 30.859722L47.24810525 30.956912L47.25600525 31.055182L47.26250525 31.153662L47.26760525 31.250402L47.27140525 31.347582L47.27410525 31.446442L47.27493525 31.496702L47.27530525 31.546962L47.27516525 31.597062L47.27454525 31.647162L47.27184525 31.746902L47.26734525 31.846052L47.26434525 31.896242L47.26084525 31.946382L47.25244525 32.045762L47.24227525 32.144072L47.23014525 32.242932L47.22334525 32.292552L47.21604525 32.342072L47.20025525 32.439612L47.18255525 32.537022L47.16298525 32.634052L47.14158525 32.730472L47.11805525 32.827442L47.10548525 32.876092L47.09242525 32.924582L47.06512525 33.020232L47.03586525 33.115432L47.00472525 33.209842L46.98830525 33.257162L46.97141525 33.304252L46.95396525 33.351342L46.93603525 33.398202L46.91761525 33.444852L46.89871525 33.491252L46.85962525 33.582982L46.81894525 33.673022L46.77604525 33.762702L46.73117525 33.851402L46.70772525 33.895862L46.68380525 33.940012L46.65928525 33.984012L46.63429525 34.027682L46.60891525 34.070842L46.58304525 34.113662L46.53049525 34.197282L46.47567525 34.280072L46.41857525 34.361912L46.36001525 34.441592L46.29901525 34.520382L46.26760525 34.559392L46.23570525 34.597982L46.17061525 34.673662L46.10374525 34.747412L46.06925525 34.783962L46.03427525 34.820032L45.96382525 34.889792L45.89113525 34.957942L45.85379525 34.991522L45.81597525 35.024592L45.73980525 35.088402L45.66177525 35.150102L45.58523525 35.206982L45.50619525 35.262032L45.42662525 35.313992L45.34555525 35.363662L45.26353525 35.410812L45.17985525 35.455952L45.09525525 35.498762L45.00814525 35.540062L44.92075525 35.578852L44.83194525 35.615722L44.74208525 35.650562L44.65264525 35.682902L44.56187525 35.713472L44.47060525 35.742032L44.37888525 35.768632L44.28676525 35.793322L44.19318525 35.816412L44.10060525 35.837342L44.00654525 35.856742L43.91288525 35.874242L43.81859525 35.890092L43.72360525 35.890026L43.62838525 35.888626L43.53262525 35.886926L43.43673525 35.885126L43.34022525 35.883326L43.24445525 35.881626L43.14908525 35.880126L43.05342525 35.879026L42.95795525 35.879043L42.94565525 35.789923L42.93157525 35.700133L42.91544525 35.610473L42.89706525 35.521653L42.87610525 35.433463L42.85199525 35.344783L42.83059525 35.248203L42.80701525 35.151193L42.79433525 35.102363L42.78119525 35.053893L42.75382525 34.958913L42.72418525 34.863783L42.70844525 34.816013L42.69223525 34.768613L42.65837525 34.674693L42.62261525 34.582043L42.58452525 34.489593L42.56452525 34.443333L42.54406525 34.397463L42.50222525 34.307833L42.45805525 34.218613L42.43502525 34.174073L42.41154525 34.129923L42.38734525 34.085693L42.36269525 34.041853L42.31261525 33.956343L42.26024525 33.871533L42.23314525 33.829323L42.20560525 33.787513L42.17737525 33.745733L42.14870525 33.704363L42.09076525 33.623793L42.03065525 33.544153L41.99973525 33.504633L41.96839525 33.465523L41.93641525 33.426543L41.90402525 33.387973L41.83884525 33.312993L41.77165525 33.239123L41.73727525 33.202573L41.70249525 33.166423L41.63272525 33.096233L41.56110525 33.027233L41.48767525 32.959483L41.45026525 32.926053L41.41249525 32.893023L41.37424525 32.860263L41.33563525 32.827893L41.25848525 32.765203L41.17977525 32.703843L41.13983525 32.673653L41.09956525 32.643853L41.01927525 32.586203L40.93762525 32.529903L40.85468525 32.474973L40.77052525 32.421443L40.68520525 32.369333L40.64213525 32.343813L40.59880525 32.318653L40.55523525 32.293863L40.51140525 32.269423L40.42439525 32.222353L40.37991525 32.199013L40.33520525 32.176023L40.24654525 32.131803L40.20132525 32.109923L40.15587525 32.088383L40.06587525 32.047023L40.02005525 32.026613L39.97402525 32.006533L39.88298525 31.968033L39.83672525 31.949073L39.79027525 31.930443L39.69725525 31.894293L39.60400525 31.859583L39.55677525 31.842573L39.50937525 31.825873L39.46211525 31.809593L39.41469525 31.793623L39.32004525 31.762803L39.27225525 31.747763L39.22432525 31.733023L39.12880525 31.704683L39.03356525 31.677743L38.93755525 31.651883L38.84089525 31.627133L38.79235525 31.615163L38.74371525 31.603503L38.69497525 31.592113L38.64613525 31.581023L38.59725525 31.570223L38.54828525 31.559693L38.49931525 31.549473L38.45025525 31.539573L38.35219525 31.520573L38.25422525 31.502743L38.15645525 31.486063L38.10681525 31.477963L38.05711525 31.470163L37.95829525 31.455533L37.86009525 31.442073L37.81050525 31.435673L37.76087525 31.429573L37.66257525 31.418203L37.56364525 31.407793L37.46431525 31.398393L37.36480525 31.389993L37.26534525 31.382593L37.16615525 31.376193L37.11609525 31.373393L37.06603525 31.370893L37.01568525 31.368493L36.96533525 31.366393L36.86570525 31.362993L36.76607525 31.360593L36.66676525 31.359093L36.56691525 31.358581L36.46697525 31.359038L36.36737525 31.360438L36.26852525 31.362838L36.16889525 31.366138L36.06914525 31.370438L35.96990525 31.375638L35.87017525 31.381838L35.77080525 31.389038L35.67119525 31.397238L35.57238525 31.406338L35.47294525 31.416438L35.37435525 31.427438L35.32459525 31.433338L35.27496525 31.439538L35.22495525 31.445938L35.17509525 31.452638L35.12528525 31.459638L35.07563525 31.466838L35.02603525 31.474238L34.97659525 31.481938L34.87797525 31.498058L34.82819525 31.506558L34.77859525 31.515358L34.72895525 31.524458L34.67950525 31.533758L34.58274525 31.552768L34.53352525 31.562838L34.48451525 31.573178L34.38718525 31.594548L34.29022525 31.616168L34.19281525 31.637338L34.09527525 31.657888L34.04605525 31.667978L33.99676525 31.677878L33.89882525 31.696878L33.80067525 31.714948L33.75122525 31.723648L33.70172525 31.732048L33.60346525 31.747878L33.55396525 31.755378L33.50443525 31.762578L33.45486525 31.769378L33.40526525 31.775778L33.30656525 31.787478L33.20736525 31.797618L33.10848525 31.806018L33.05824525 31.809618L33.00798525 31.812718L32.90843525 31.817318L32.85843525 31.818918L32.80843525 31.819918L32.75838525 31.820372L32.70835525 31.820258L32.65809525 31.819556L32.60785525 31.818256L32.50898525 31.813856L32.41044525 31.806956L32.36065525 31.802456L32.31090525 31.797356L32.21211525 31.784996L32.16248525 31.777696L32.11291525 31.769596L32.01584525 31.751616L31.91826525 31.730426L31.82209525 31.706356L31.72621525 31.679066L31.63110525 31.648676L31.53715525 31.615396L31.44420525 31.578686L31.35333525 31.537956L31.26564525 31.491826L31.18237525 31.436736L31.11221525 31.367286L31.0889615 31.3219835L31.08503525 31.275526L31.10017025 31.23383725L31.13504525 31.191736L31.20574525 31.129136L31.27992525 31.068596L31.35546525 31.010866L31.43271525 30.954696L31.51109525 30.899646L31.58911525 30.845906L31.66843525 30.791526L31.74769525 30.736616L31.82469525 30.681896L31.90189525 30.624766L31.97684525 30.566066L32.05362525 30.503966L32.13060525 30.441826L32.20769525 30.379686L32.28479525 30.317596L32.36181525 30.255586L32.43865525 30.193706L32.51522525 30.132006L32.59143525 30.070516L32.66865525 30.008086L32.74526525 29.946006L32.82118525 29.884306L32.89768525 29.821926L32.97327525 29.760046L33.04914525 29.697656L33.12511525 29.634876L33.20100525 29.571816L33.27664525 29.508586L33.35186525 29.445286L33.42651525 29.382036L33.50146525 29.318046L33.57645525 29.253506L33.65027525 29.189416L33.72462525 29.124276L33.79828525 29.059116L33.87104525 28.994106L33.94347525 28.928696L34.01677525 28.861756L34.08900525 28.795006L34.16124525 28.727426L34.23301525 28.659416L34.30388525 28.591356L34.37455525 28.522546L34.44443525 28.453526L34.51392525 28.383846L34.58233525 28.314196L34.65142525 28.242706L34.71998525 28.170566L34.78692525 28.098916L34.85363525 28.026226L34.91952525 27.953096L34.98460525 27.879496L35.04961525 27.804516L35.11304525 27.729886L35.17602525 27.654236L35.23871525 27.577306L35.29987525 27.500586L35.36022525 27.423156L35.42090525 27.344286L35.48104525 27.265816L35.54135525 27.186776L35.60174525 27.107246L35.63197525 27.067286L35.66214525 27.027306L35.72175525 26.947946L35.78055525 26.869196L35.83918525 26.790166L35.89756525 26.710926L35.95562525 26.631546L35.98510525 26.590996L36.01450525 26.550406L36.07284525 26.469326L36.13058525 26.388376L36.18765525 26.307626L36.21641525 26.266636L36.24507525 26.225576L36.30163525 26.143916L36.33002525 26.102596L36.35829525 26.061216L36.41392525 25.979096L36.46942525 25.896196L36.52374525 25.814046L36.57772525 25.731366L36.63122525 25.648316L36.68413525 25.565046L36.73632525 25.481706L36.78842525 25.397246L36.84023525 25.311936L36.89090525 25.227136L36.91634525 25.184026L36.94161525 25.140816L36.99090525 25.055426L37.03985525 24.969076L37.08823525 24.882116L37.13583525 24.794876L37.18245525 24.707686L37.22880525 24.619156L37.27373525 24.531456L37.29629525 24.486676L37.31865525 24.441776L37.36242525 24.352336L37.40545525 24.262236L37.44740525 24.172176L37.48850525 24.081616L37.52885525 23.990286L37.56796525 23.899266L37.60622525 23.807616L37.64375525 23.714996L37.67979525 23.623246L37.71483525 23.531166L37.74932525 23.437446L37.78264525 23.343706L37.81456525 23.250646L37.84565525 23.156556L37.86094525 23.108916L37.87597525 23.061136L37.90492525 22.966236L37.93284525 22.870736L37.95969525 22.775046L37.97288525 22.726666L37.98582525 22.678156L38.01056525 22.582646L38.03456525 22.486096L38.04629525 22.437416L38.05778525 22.388626L38.07991525 22.291536L38.10097525 22.194866L38.12120525 22.097556L38.14057525 21.999716L38.15906525 21.901466L38.16796525 21.852226L38.17666525 21.802916L38.18506525 21.753586L38.19326525 21.704176L38.20126525 21.654806L38.20896525 21.605366L38.22373525 21.506596L38.23754525 21.407976L38.25040525 21.309606L38.26230525 21.211596L38.26800525 21.161926L38.27340525 21.112206L38.28356525 21.013466L38.28836525 20.963616L38.29286525 20.913726L38.30116525 20.814916L38.30866525 20.715476L38.31206525 20.665566L38.31526525 20.615616L38.31816525 20.565596L38.32096525 20.515566L38.32346525 20.465556L38.32576525 20.415536L38.32956525 20.315736L38.33246525 20.216376L38.33446525 20.117646L38.33556525 20.018406L38.33572025 19.918986L38.33495625 19.819706L38.33325625 19.720856L38.33065625 19.621606L38.32715625 19.522386L38.32265625 19.423596L38.32005625 19.373616L38.31715625 19.323656L38.31085625 19.225096L38.30355625 19.126496L38.29955625 19.076626L38.29525625 19.026786L38.28605625 18.928406L38.27579625 18.828946L38.26470625 18.730846L38.25256625 18.632266L38.23952625 18.534436L38.22544625 18.436346L38.21024625 18.337656L38.19424625 18.240386L38.18574625 18.190996L38.17694625 18.141696L38.15867625 18.043546L38.13942625 17.945916L38.11914625 17.848586L38.09773625 17.751186L38.08654625 17.702256L38.07512625 17.653446L38.05174625 17.557276L38.02733625 17.461556L38.00227625 17.365476L37.97707625 17.268996L37.95207625 17.173656L37.92666625 17.077256L37.91378625 17.028746L37.90088625 16.980246L37.87508625 16.884126L37.84901625 16.788126L37.83577625 16.739876L37.82245625 16.691656L37.79574625 16.596166L37.76844625 16.500236L37.74066625 16.404466L37.71251625 16.309446L37.68367625 16.214216L37.65432625 16.119576L37.62423625 16.024956L37.59326625 15.930116L37.57741625 15.882576L37.56136625 15.835106L37.54508625 15.787656L37.52858625 15.740276L37.49541625 15.647136L37.46111625 15.553736L37.42591625 15.460886L37.40772625 15.414056L37.38926625 15.367326L37.35175625 15.274706L37.31363625 15.183706L37.27416625 15.092686L37.25382625 15.046986L37.23316625 15.001406L37.19139625 14.911646L37.14833625 14.822366L37.10543625 14.736266L37.06150625 14.650386L37.01676625 14.565056L36.97047625 14.478816L36.92386625 14.393886L36.87627625 14.308946L36.82802625 14.224486L36.77945625 14.140956L36.73010625 14.057476L36.68040625 13.974686L36.62940625 13.890906L36.57842625 13.808226L36.52677625 13.725426L36.47467625 13.642756L36.42298625 13.561476L36.37066625 13.479836L36.31819625 13.398486L36.26487625 13.316276L36.21167625 13.234586L36.15902625 13.153986L36.10600625 13.072976L36.05249625 12.991276L35.99957625 12.910436L35.94666625 12.829476L35.89632625 12.750256L35.84461625 12.674156L35.79005625 12.598466L35.73385625 12.524526L35.67619625 12.452216L35.61660625 12.380726L35.55534625 12.310186L35.49265625 12.240746L35.42929625 12.173066L35.36433625 12.106066L35.29860625 12.040526L35.23116625 11.975476L35.16389625 11.912676L35.09397625 11.842776L35.03081625 11.765716L34.97815625 11.682096L34.93813625 11.591346L34.92325625 11.542856L34.91226625 11.493876L34.90048625 11.394776L34.89938625 11.295206L34.90168625 11.245606L34.90548625 11.194826L34.91548625 11.095626L34.92108625 11.046516L34.92688625 10.996076L34.93248625 10.946806L34.93788625 10.896186L34.94698625 10.797196L34.95468625 10.698646L34.96208625 10.598956L34.96568625 10.548766L34.96918625 10.498566L34.97588625 10.399016L34.97908625 10.348716L34.98228625 10.298416L34.98528625 10.248376L34.98828625 10.198336L34.99378625 10.099126L34.99898625 9.999296L35.00378625 9.899458L35.00818625 9.800199L35.01228625 9.700509L35.01598625 9.601194L35.01928625 9.501642L35.02218625 9.402841L35.02348625 9.352518L35.02478625 9.302192L35.02588625 9.251802L35.02698625 9.201409L35.02868625 9.102077L35.03008625 9.002108L35.03104825 8.90235L35.03161225 8.80278L35.03174525 8.752489L35.03177725 8.702197L35.03154125 8.602934L35.03090125 8.50318L35.03041925 8.452912L35.02980125 8.402644L35.02840125 8.303275L35.02650125 8.203905L35.02540125 8.15369L35.02430125 8.103493L35.02200125 8.005013L35.01950125 7.905886L35.01670125 7.806225L35.01520125 7.756173L35.01370125 7.706139L35.01200125 7.655929L35.01040125 7.605737L35.00690125 7.506297L35.00310125 7.407846L34.99900125 7.309293L34.99460125 7.210739L34.98990125 7.112282L34.98740125 7.062095L34.98480125 7.011927L34.98210125 6.961934L34.97930125 6.91196L34.97350125 6.81247L34.96730125 6.713545L34.96400125 6.663452L34.96070125 6.613379L34.95370125 6.514043L34.95000125 6.463923L34.94620125 6.413823L34.93830125 6.314683L34.93420125 6.264832L34.92990125 6.215001L34.92120125 6.11663L34.91200125 6.018038L34.90230125 5.919428L34.89206125 5.820995L34.88133125 5.722929L34.86996125 5.624019L34.86406125 5.574293L34.85796125 5.524588L34.84551125 5.426244L34.83901125 5.376437L34.83231125 5.326652L34.81870125 5.228642L34.80438125 5.130053L34.78939125 5.031298L34.77378125 4.932774L34.75760125 4.834859L34.74920125 4.785423L34.74060125 4.73601L34.72313125 4.63866L34.70497125 4.541408L34.69557125 4.4923L34.68597125 4.443214L34.66644125 4.346416L34.64595125 4.248669L34.62470125 4.150993L34.61377125 4.102045L34.60261125 4.053121L34.57994125 3.956219L34.55644125 3.85929L34.54433125 3.810627L34.53201125 3.761987L34.50714125 3.666252L34.48151125 3.570818L34.46822125 3.522576L34.45473125 3.474358L34.42725125 3.378552L34.39928125 3.284099L34.37031125 3.189275L34.35537125 3.141528L34.34022125 3.093804L34.30959125 2.999536L34.27806125 2.905361L34.24538125 2.811808L34.21093125 2.718208L34.19314125 2.671639L34.17483125 2.624876L34.13782125 2.533635L34.09875125 2.441673L34.05836125 2.350814L34.01676125 2.261298L33.97339125 2.171994L33.92836125 2.083249L33.88177125 1.9954L33.83375125 1.908767L33.78442125 1.823652L33.73257125 1.73816L33.67971125 1.654953L33.62466125 1.572313L33.56763125 1.490792L33.50884125 1.410908L33.44854125 1.333141L33.38575125 1.25644L33.32082125 1.181537L33.28712125 1.144363L33.25297125 1.107848L33.21807125 1.071717L33.18272125 1.036306L33.11063125 0.9677341L33.03624125 0.9019245L32.95930125 0.8389632L32.87979125 0.7791754L32.79795125 0.7230575L32.71344125 0.6707057L32.62645125 0.6225821L32.53772125 0.5793461L32.44599125 0.5406932L32.35284125 0.5075679L32.25717125 0.4798055L32.15994125 0.4579332L32.06208125 0.4422257L31.96352125 0.4326617L31.91356125 0.4301687L31.86315125 0.42923695L31.86315125 0.42923695"
       id="path1103"
       inkscape:connector-curvature="0"
       inkscape:label="outline" /></g><g
     style="display:inline"
     inkscape:label="B.Cu-disabled"
     inkscape:groupmode="layer"
     id="g864" /><g
     style="display:inline"
     inkscape:label="B.Mask-disabled"
     inkscape:groupmode="layer"
     id="g866" /><g
     style="display:inline"
     inkscape:label="B.Silk-disabled"
     inkscape:groupmode="layer"
     id="g868" /><g
     style="display:inline"
     inkscape:label="F.Cu"
     inkscape:groupmode="layer"
     id="g870" /><g
     style="display:inline"
     inkscape:label="F.Mask-disabled"
     inkscape:groupmode="layer"
     id="g872" /><g
     style="display:inline"
     inkscape:label="F.Silk"
     inkscape:groupmode="layer"
     id="g874"><path
       inkscape:label="nose"
       style="display:inline;fill:#000000;stroke-width:0.02718042;fill-opacity:1"
       inkscape:connector-curvature="0"
       id="path1052"
       d="m 26.221515,27.241983 c 0.09024,0.66293 -0.297898,1.339723 -0.961644,1.514493 -0.693644,0.107088 -1.549012,-0.0386 -1.73248,-0.836613 -0.131825,-0.668639 0.294364,-1.297865 0.93283,-1.479974 -0.0052,0.0082 0.260663,-0.03289 0.21853,-0.03398 0.610203,-0.03724 1.423713,0.123399 1.542764,0.83607 z" /><path
       inkscape:label="right ear"
       style="display:inline;fill:#000000;fill-opacity:1;stroke-width:0.02718042"
       inkscape:connector-curvature="0"
       id="path1054"
       d="m 33.119905,5.8243556 c 0.0076,0.9836594 -0.09459,1.9550876 -0.262288,2.9237978 -0.02582,0.1494923 -0.04403,1.125813 -0.322903,0.9029335 C 32.194686,9.4083658 31.845687,9.1781476 31.484462,8.9688584 30.741619,8.5383205 29.948225,8.2317254 29.150479,7.9234994 28.678356,7.7411188 28.20895,7.5712412 27.729759,7.4095177 27.497366,7.3554286 26.91489,7.2991652 27.107327,6.9623998 27.927361,5.52673 29.044748,4.1571086 30.372783,3.1631207 c 0.670541,-0.4030857 1.500903,-0.6333038 2.06245,0.080182 0.56834,0.7224556 0.677877,1.6952428 0.684672,2.5810529 z" /><path
       inkscape:label="left ear"
       style="display:inline;fill:#000000;stroke-width:0.02718042;fill-opacity:1"
       inkscape:connector-curvature="0"
       id="path1056"
       d="m 8.4137189,14.398691 c 0.222064,0.10247 0.3625868,0.0916 0.2359288,0.351445 -0.083172,0.171237 -0.1788472,0.33595 -0.2644655,0.5061 -0.8083457,1.602286 -1.5218317,3.330417 -1.6319124,5.13873 C 6.793225,20.763804 5.9443805,20.078586 5.8582185,20.009004 5.5586903,19.802161 5.291235,19.581456 5.010733,19.345802 4.3426383,18.784526 3.6837849,18.144971 3.1833934,17.426592 2.7120849,16.750344 2.2812753,16.086869 2.3902687,15.227425 c 0.079367,-0.828188 1.0812371,-1.128531 1.7656401,-1.242689 0.9418016,-0.07339 1.900455,-0.05762 2.8343742,0.09622 0.471034,0.07746 0.9695229,0.16906 1.4234359,0.317737 z" /><path
       inkscape:label="right eye"
       inkscape:connector-curvature="0"
       id="path1058"
       d="m 30.008837,16.84753 c -0.07151,-1.63e-4 -0.143271,6.01e-4 -0.215266,0.0023 -0.932829,0.04838 -1.83115,0.600679 -2.443794,1.275569 -0.793128,0.874122 -0.953227,1.908639 -0.987202,3.040703 -0.06659,2.223631 2.388613,3.787853 4.394256,3.638089 2.300823,-0.17178 3.635936,-2.121141 3.628054,-4.302098 -0.0035,-1.069821 -0.625443,-2.064892 -1.430528,-2.727279 -0.857458,-0.705587 -1.872807,-0.924796 -2.94552,-0.927266 z M 28.8576,19.959051 c 0.02607,8.2e-5 0.05177,8.21e-4 0.07713,0.0023 1.6e-5,1e-6 0,-1e-6 0,0 0.405793,0.02338 0.721349,0.220255 0.933903,0.502201 0.02657,0.03524 0.05152,0.07184 0.07485,0.109571 0.139968,0.226388 0.221134,0.49445 0.238147,0.766838 0.0028,0.0454 0.0039,0.09091 0.0031,0.13638 -0.01054,0.636541 -0.375185,1.262907 -1.161806,1.405366 -0.582612,0.105392 -1.114326,-0.141326 -1.425751,-0.588095 -0.02595,-0.03723 -0.05036,-0.07586 -0.07315,-0.115783 -0.06838,-0.119764 -0.12213,-0.251234 -0.15857,-0.392045 -0.05066,-0.195793 -0.06486,-0.384606 -0.04672,-0.561764 0.0052,-0.05062 0.01299,-0.100252 0.02336,-0.148856 0.119244,-0.558935 0.575029,-0.977488 1.221472,-1.089234 -0.03452,0.0054 -0.05491,0.0087 -0.06524,0.01003 0.02908,-0.0049 0.120948,-0.01985 0.122579,-0.01985 -8.16e-4,2.72e-4 -0.0032,8.29e-4 -0.0073,0.0016 0.08441,-0.01292 0.165735,-0.01894 0.243933,-0.01869 z"
       style="display:inline;fill:#000000;fill-opacity:1;stroke-width:0.02718042" /><path
       inkscape:label="left eye"
       inkscape:connector-curvature="0"
       id="path1060"
       d="m 16.267437,22.819419 c -0.14146,-0.0014 -0.283606,0.0036 -0.425862,0.01497 -2.338603,0.191894 -3.574775,2.493273 -3.478828,4.613344 0.09758,2.158128 2.322331,3.707684 4.372278,3.472299 2.204332,-0.253047 3.700613,-2.173602 3.665004,-4.354015 -0.03771,-2.287233 -2.01068,-3.726167 -4.132592,-3.746598 z m 1.644628,1.926678 c 1.435232,-0.0039 1.902143,2.419218 0.296118,2.952262 -0.850943,0.192135 -1.465247,-0.275346 -1.713057,-0.890691 -0.0085,-0.02122 -0.01665,-0.04258 -0.02431,-0.06413 -0.107362,-0.301682 -0.128251,-0.633716 -0.0481,-0.938521 0.01145,-0.04354 0.02494,-0.08652 0.04056,-0.128788 0.0078,-0.02113 0.01614,-0.04211 0.025,-0.06285 0.01773,-0.0415 0.03759,-0.08217 0.05962,-0.121887 0.165219,-0.297873 0.452447,-0.54088 0.879647,-0.658223 -0.07746,0.0212 -0.107315,0.02883 -0.110579,0.02883 0.0106,-0.006 0.221199,-0.06772 0.119816,-0.03212 0.167975,-0.05713 0.326814,-0.08347 0.475286,-0.08388 z"
       style="display:inline;fill:#000000;fill-opacity:1;stroke-width:0.02718042" /><path
       inkscape:label="feet"
       inkscape:connector-curvature="0"
       id="path1062"
       d="m 30.781462,31.430728 c -0.0045,-2.99e-4 -0.0093,-2.72e-4 -0.01428,3.26e-4 -0.25903,0.025 -0.811646,0.506379 -1.040233,0.658861 -2.956414,1.608263 -6.18951,2.662037 -9.522916,3.10807 -0.294506,0.03942 -0.595693,0.07651 -0.900617,0.10957 0.201654,0.17511 0.362873,0.38575 0.486487,0.602375 0.10445,0.183047 0.18299,0.369939 0.237192,0.547167 1.117238,-1.089998 2.990724,-0.844219 4.419525,-0.818544 1.608812,0.02881 3.3266,-0.420753 4.623378,-1.406587 0.618086,-0.469947 1.18567,-1.083952 1.508832,-1.796351 0.06116,-0.11144 0.400628,-0.953772 0.215532,-1.002968 -0.0041,-9.52e-4 -0.0084,-0.0016 -0.0129,-0.0019 z m -7.26954,5.740801 c -0.929296,-0.0071 -1.699632,0.205783 -2.426437,0.809734 -0.302518,0.251419 -0.589249,0.551162 -0.823269,0.867542 -0.110801,0.149829 -0.201158,0.317791 -0.29081,0.410946 0.0999,0.259122 0.233866,0.538276 0.383765,0.810847 0.10517,0.191236 0.21778,0.379688 0.33073,0.557889 -0.01221,-0.324241 0.05449,-0.652896 0.187609,-0.913676 0.309857,-0.605849 0.868146,-1.057334 1.487862,-1.319897 0.355246,-0.15058 0.709923,-0.240006 1.083926,-0.323722 0.416401,-0.09323 0.92141,0.01199 1.304925,-0.200561 0.890974,-0.494138 -1.035533,-0.697472 -1.238301,-0.699102 z"
       style="color:#000000;font-style:normal;font-variant:normal;font-weight:normal;font-stretch:normal;font-size:medium;line-height:normal;font-family:sans-serif;font-variant-ligatures:normal;font-variant-position:normal;font-variant-caps:normal;font-variant-numeric:normal;font-variant-alternates:normal;font-feature-settings:normal;text-indent:0;text-align:start;text-decoration:none;text-decoration-line:none;text-decoration-style:solid;text-decoration-color:#000000;letter-spacing:normal;word-spacing:normal;text-transform:none;writing-mode:lr-tb;direction:ltr;text-orientation:mixed;dominant-baseline:auto;baseline-shift:baseline;text-anchor:start;white-space:normal;shape-padding:0;clip-rule:nonzero;display:inline;overflow:visible;visibility:visible;opacity:1;isolation:auto;mix-blend-mode:normal;color-interpolation:sRGB;color-interpolation-filters:linearRGB;solid-color:#000000;solid-opacity:1;vector-effect:none;fill:#000000;fill-opacity:1;fill-rule:nonzero;stroke:none;stroke-width:0.27180421;stroke-linecap:butt;stroke-linejoin:miter;stroke-miterlimit:4;stroke-dasharray:none;stroke-dashoffset:0;stroke-opacity:1;color-rendering:auto;image-rendering:auto;shape-rendering:auto;text-rendering:auto;enable-background:accumulate"
       sodipodi:nodetypes="cccccccccccccccccccccccc" /><path
       inkscape:label="tail"
       inkscape:connector-curvature="0"
       id="path1064"
       d="m 47.522106,24.675969 c -0.174537,-0.004 -0.361386,0.04324 -0.519241,0.159366 -0.262473,0.193104 -0.329848,0.485413 -0.356795,0.725962 -0.02694,0.240548 -0.01127,0.468878 -0.01019,0.604499 v 5.4e-5 c 0.008,0.975217 0.351451,2.029353 0.691666,2.872791 0.325173,0.80537 0.471333,1.526031 0.489886,2.396389 0.03365,1.57716 -0.575643,3.187203 -1.824752,4.146395 -0.601429,0.461725 -1.343618,0.731439 -2.115294,0.850397 -0.193468,0.0088 -0.665934,0.0268 -0.853476,0.03716 0.0058,0.04748 0.01197,0.09511 0.01906,0.143172 0.06034,0.409335 0.559324,0.161716 0.880868,0.156554 0.817313,-0.125307 1.616716,-0.411775 2.275564,-0.917605 1.351416,-1.037751 1.993129,-2.753937 1.95752,-4.423081 -0.0193,-0.905382 -0.175852,-1.677578 -0.514517,-2.516366 -0.332417,-0.824107 -0.659642,-1.853952 -0.666983,-2.748461 -0.0024,-0.304965 -0.05218,-0.84752 0.228593,-1.054091 0.256037,-0.18836 0.582699,-0.07201 0.78356,0.132664 0.507996,0.518064 0.795864,1.235923 0.988848,1.924131 0.909185,3.242898 1.580275,7.335163 -1.275303,9.8219 -1.276392,1.111679 -2.904788,1.47017 -4.540777,1.53649 -0.239683,0.0098 -0.310091,0.179815 -0.349152,0.383179 0.09397,-0.02884 0.363112,-0.0427 0.363166,-0.0438 1.676333,-0.06798 3.393,-0.437904 4.749993,-1.619782 1.507337,-1.312643 2.087522,-3.067938 2.165725,-4.868853 0.0782,-1.800915 -0.327668,-3.664682 -0.786425,-5.300978 -0.200113,-0.713643 -0.50044,-1.486002 -1.073362,-2.070279 v -5.5e-5 -5.4e-5 c -0.14238,-0.145078 -0.32364,-0.258904 -0.539255,-0.307266 -0.0539,-0.01209 -0.110743,-0.0191 -0.168923,-0.02044 z"
       style="color:#000000;font-style:normal;font-variant:normal;font-weight:normal;font-stretch:normal;font-size:medium;line-height:normal;font-family:sans-serif;font-variant-ligatures:normal;font-variant-position:normal;font-variant-caps:normal;font-variant-numeric:normal;font-variant-alternates:normal;font-feature-settings:normal;text-indent:0;text-align:start;text-decoration:none;text-decoration-line:none;text-decoration-style:solid;text-decoration-color:#000000;letter-spacing:normal;word-spacing:normal;text-transform:none;writing-mode:lr-tb;direction:ltr;text-orientation:mixed;dominant-baseline:auto;baseline-shift:baseline;text-anchor:start;white-space:normal;shape-padding:0;clip-rule:nonzero;display:none;overflow:visible;visibility:visible;opacity:1;isolation:auto;mix-blend-mode:normal;color-interpolation:sRGB;color-interpolation-filters:linearRGB;solid-color:#000000;solid-opacity:1;vector-effect:none;fill:#000000;fill-opacity:1;fill-rule:nonzero;stroke:none;stroke-width:0.67951047;stroke-linecap:butt;stroke-linejoin:miter;stroke-miterlimit:4;stroke-dasharray:none;stroke-dashoffset:0;stroke-opacity:1;color-rendering:auto;image-rendering:auto;shape-rendering:auto;text-rendering:auto;enable-background:accumulate" /><path
       inkscape:label="wider tail"
       inkscape:connector-curvature="0"
       id="path1066"
       d="m 47.461056,24.131405 c -0.263188,0.0064 -0.536253,0.08648 -0.780162,0.265911 v 5.5e-5 c -0.437635,0.321971 -0.542195,0.811548 -0.574877,1.103302 -0.03378,0.301535 -0.01438,0.570752 -0.01359,0.669371 v 1.63e-4 c 0.009,1.09962 0.379596,2.200196 0.731112,3.071654 0.304195,0.753414 0.433047,1.388496 0.45044,2.204427 0.03049,1.429364 -0.528578,2.871419 -1.612351,3.703651 -0.505339,0.387935 -1.151018,0.630044 -1.843172,0.739976 -0.07146,0.0032 -0.699092,-0.0134 -0.860641,-0.01088 0.02541,0.195209 0.04152,0.390297 0.06609,0.589953 0.187542,-0.01036 0.660008,-0.02836 0.853476,-0.03716 0.771676,-0.118958 1.513865,-0.388672 2.115294,-0.850396 1.249109,-0.959192 1.858399,-2.569235 1.824752,-4.146395 -0.01855,-0.870358 -0.164713,-1.59102 -0.489886,-2.396389 -0.340215,-0.843438 -0.683661,-1.897571 -0.691666,-2.87279 v -5.5e-5 c -0.0011,-0.135621 -0.01675,-0.363951 0.01019,-0.604499 0.02695,-0.240548 0.09432,-0.532857 0.356795,-0.725961 0.210474,-0.15484 0.472548,-0.18729 0.688164,-0.138928 0.215615,0.04836 0.396875,0.162188 0.539255,0.307266 v 5.4e-5 5.5e-5 c 0.572922,0.584277 0.873249,1.356636 1.073362,2.070276 0.458757,1.636297 0.864629,3.500064 0.786425,5.300979 -0.0782,1.800914 -0.658388,3.55621 -2.165725,4.868853 -1.356993,1.181878 -3.07366,1.551806 -4.749993,1.619781 0,0.0011 -0.269198,0.01496 -0.363166,0.0438 -0.02796,0.145562 -0.03996,0.308104 -0.086,0.441788 -0.0016,0.0053 -0.0034,0.01042 -0.005,0.01566 1.717558,-0.08004 4.100759,-0.439173 5.561315,-1.711252 1.636237,-1.424892 2.269201,-3.353175 2.351797,-5.255217 0.08245,-1.898601 -0.340848,-3.811918 -0.806071,-5.47128 -0.193467,-0.689939 -0.485695,-1.473778 -1.053187,-2.129787 v -0.01603 l -0.155651,-0.15857 c -0.20437,-0.208241 -0.478375,-0.382929 -0.808245,-0.456918 -0.111899,-0.0251 -0.229468,-0.03737 -0.3491,-0.03445 z"
       style="color:#000000;font-style:normal;font-variant:normal;font-weight:normal;font-stretch:normal;font-size:medium;line-height:normal;font-family:sans-serif;font-variant-ligatures:normal;font-variant-position:normal;font-variant-caps:normal;font-variant-numeric:normal;font-variant-alternates:normal;font-feature-settings:normal;text-indent:0;text-align:start;text-decoration:none;text-decoration-line:none;text-decoration-style:solid;text-decoration-color:#000000;letter-spacing:normal;word-spacing:normal;text-transform:none;writing-mode:lr-tb;direction:ltr;text-orientation:mixed;dominant-baseline:auto;baseline-shift:baseline;text-anchor:start;white-space:normal;shape-padding:0;clip-rule:nonzero;display:none;overflow:visible;visibility:visible;opacity:1;isolation:auto;mix-blend-mode:normal;color-interpolation:sRGB;color-interpolation-filters:linearRGB;solid-color:#000000;solid-opacity:1;vector-effect:none;fill:#000000;fill-opacity:1;fill-rule:nonzero;stroke:none;stroke-width:1.08721685;stroke-linecap:butt;stroke-linejoin:miter;stroke-miterlimit:4;stroke-dasharray:none;stroke-dashoffset:0;stroke-opacity:1;color-rendering:auto;image-rendering:auto;shape-rendering:auto;text-rendering:auto;enable-background:accumulate" /><path
       inkscape:label="full tail"
       sodipodi:nodetypes="ccccccccccccccccccccccccccccsccccccc"
       inkscape:connector-curvature="0"
       id="path1068"
       d="m 47.505808,24.131033 c -0.01488,-1.08e-4 -0.0298,7e-6 -0.04475,3.73e-4 -0.263188,0.0064 -0.536253,0.08647 -0.780162,0.265911 v 5.5e-5 c -0.437635,0.321971 -0.542195,0.811547 -0.574877,1.103301 -0.03378,0.301536 -0.01438,0.570753 -0.01359,0.669372 v 1.63e-4 c 0.009,1.099619 0.379596,2.200195 0.731112,3.071653 0.304195,0.753414 0.433047,1.388496 0.45044,2.204427 0.03049,1.429364 -0.528578,2.871419 -1.612351,3.703651 -0.505339,0.387935 -1.151018,0.630044 -1.843172,0.739976 -0.07146,0.0032 -0.699092,-0.0134 -0.860641,-0.01088 0.02541,0.195209 0.04152,0.390297 0.06609,0.589953 0.0058,0.04748 0.01197,0.09511 0.01906,0.143176 0.06034,0.409334 0.559324,0.161713 0.880868,0.156551 0.817313,-0.125307 1.616716,-0.411772 2.275564,-0.917603 1.351416,-1.037751 1.993129,-2.753939 1.95752,-4.423083 -0.0193,-0.905383 -0.175852,-1.677578 -0.514517,-2.516366 -0.332417,-0.824108 -0.659642,-1.853949 -0.666983,-2.74846 -0.0024,-0.304964 -0.05218,-0.84752 0.228593,-1.054091 0.256037,-0.18836 0.582699,-0.072 0.78356,0.132664 0.507996,0.518064 0.795864,1.235922 0.988848,1.924129 0.909185,3.242899 1.580275,7.335164 -1.275303,9.8219 -1.276392,1.11168 -2.904788,1.47017 -4.540777,1.536491 -0.239683,0.0098 -0.310091,0.179814 -0.349152,0.383178 -0.02796,0.145562 -0.03996,0.308104 -0.086,0.441788 -0.0016,0.0053 -0.0034,0.01042 -0.005,0.01566 1.717558,-0.08004 4.100759,-0.439173 5.561315,-1.711252 1.636237,-1.424892 2.269201,-3.353175 2.351797,-5.255217 0.08245,-1.898601 -0.340848,-3.811918 -0.806071,-5.47128 -0.193467,-0.689938 -0.485695,-1.473778 -1.053187,-2.129787 v -0.01603 l -0.155651,-0.15857 c -0.20437,-0.208242 -0.478375,-0.382929 -0.808245,-0.456918 -0.09791,-0.02196 -0.20017,-0.03409 -0.304348,-0.03482 z"
       style="color:#000000;font-style:normal;font-variant:normal;font-weight:normal;font-stretch:normal;font-size:medium;line-height:normal;font-family:sans-serif;font-variant-ligatures:normal;font-variant-position:normal;font-variant-caps:normal;font-variant-numeric:normal;font-variant-alternates:normal;font-feature-settings:normal;text-indent:0;text-align:start;text-decoration:none;text-decoration-line:none;text-decoration-style:solid;text-decoration-color:#000000;letter-spacing:normal;word-spacing:normal;text-transform:none;writing-mode:lr-tb;direction:ltr;text-orientation:mixed;dominant-baseline:auto;baseline-shift:baseline;text-anchor:start;white-space:normal;shape-padding:0;clip-rule:nonzero;display:inline;overflow:visible;visibility:visible;opacity:1;isolation:auto;mix-blend-mode:normal;color-interpolation:sRGB;color-interpolation-filters:linearRGB;solid-color:#000000;solid-opacity:1;vector-effect:none;fill:#000000;fill-opacity:1;fill-rule:nonzero;stroke:none;stroke-width:0.67951047;stroke-linecap:butt;stroke-linejoin:miter;stroke-miterlimit:4;stroke-dasharray:none;stroke-dashoffset:0;stroke-opacity:1;color-rendering:auto;image-rendering:auto;shape-rendering:auto;text-rendering:auto;enable-background:accumulate" /></g><g
     style="display:inline"
     inkscape:label="Drill"
     inkscape:groupmode="layer"
     id="g876" /></svg>