<?xml version="1.0" encoding="UTF-8" standalone="no"?>
<svg
   xmlns:dc="http://purl.org/dc/elements/1.1/"
   xmlns:cc="http://creativecommons.org/ns#"
   xmlns:rdf="http://www.w3.org/1999/02/22-rdf-syntax-ns#"
   xmlns:svg="http://www.w3.org/2000/svg"
   xmlns="http://www.w3.org/2000/svg"
   xmlns:sodipodi="http://sodipodi.sourceforge.net/DTD/sodipodi-0.dtd"
   xmlns:inkscape="http://www.inkscape.org/namespaces/inkscape"
   height="4in"
   width="2in"
   inkscape:version="0.92.2 5c3e80d, 2017-08-06"
   sodipodi:docname="Whatcha-Lookin-At-Kitty.svg"
   xml:space="preserve"
   enable-background="new 336.0004 4.5466 1887.9996 1590.9063"
   viewBox="336.0004 4.5466 192 384.00003"
   y="0px"
   x="0px"
   id="Layer_1"
   version="1.1"><metadata
     id="metadata34"><rdf:RDF><cc:Work
         rdf:about=""><dc:format>image/svg+xml</dc:format><dc:type
           rdf:resource="http://purl.org/dc/dcmitype/StillImage" /><dc:title></dc:title></cc:Work></rdf:RDF></metadata><defs
     id="defs32" /><sodipodi:namedview
     units="in"
     inkscape:current-layer="Layer_1"
     inkscape:window-maximized="0"
     inkscape:window-y="187"
     inkscape:window-x="1043"
     inkscape:cy="-100.92459"
     inkscape:cx="200.12598"
     inkscape:zoom="0.1767767"
     showgrid="false"
     id="namedview30"
     inkscape:window-height="978"
     inkscape:window-width="1501"
     inkscape:pageshadow="2"
     inkscape:pageopacity="0"
     guidetolerance="10"
     gridtolerance="10"
     objecttolerance="10"
     borderopacity="1"
     bordercolor="#666666"
     pagecolor="#ffffff" /><g
     id="g4792"
     transform="matrix(0.06640993,0,0,0.06640993,327.27719,15.703672)"><g
       inkscape:label="orig"
       id="g4739"><path
         inkscape:label="path12"
         inkscape:connector-curvature="0"
         id="path4532"
         transform="translate(336.0004,4.5466)"
         d="m 1195.8984,28.357422 c -9.2922,-0.02608 -19.2027,2.128516 -29.7129,7.009766 -54.54,20.829999 -97.9903,64.289995 -136.1503,107.000002 -19.6899,22.04 -38.56973,45.04914 -56.42973,68.61914 -8.8301,11.67 -30.59049,56.01953 -44.65039,56.51953 -62.7099,2.24 -122.98873,-0.0195 -185.04883,13.23047 -59.84,12.77 -119.92156,29.90054 -172.85156,61.56055 -51.45,30.77998 -95.59938,65.70023 -137.85938,108.24023 -5.23,6.58 -19.32994,28.29023 -28.08984,27.99023 -10.24,-0.34 -22.71938,-5.39015 -32.35938,-8.66015 -27.69,-8.91 -59.34015,-11.42016 -88.16015,-14.41016 -62.54,-6.48 -134.15055,-3.85156 -192.310549,21.39844 -61.34,26.62 -70.509844,86.73164 -46.089844,144.68164 24.71,58.64 70.790783,105.82898 115.300783,149.95898 22.7,22.49 47.25976,43.83102 72.25976,63.79102 11.18,8.93 26.68016,15.07023 28.41016,30.24023 -0.13,15.83 0.52969,31.66003 1.92969,47.41993 5.56,62.52 18.47914,124.52923 48.11914,180.35933 14.72,27.7199 30.20945,56.6598 50.93945,80.4297 14.66,17.53 28.82063,40.2105 48.39063,52.9004 23.92,19.9699 46.98109,37.1104 74.62109,51.9004 25.77,13.78 52.3082,20.3495 79.9082,28.7695 48.43353,11.286 101.85371,10.5447 152.92188,5.7754 10.33001,6.2312 18.32451,15.5871 24.04687,25.6153 4.65752,8.1621 7.74096,16.775 9.37891,24.1152 -0.81526,1.0353 -1.62128,2.0867 -2.40625,3.1738 -17.3,23.9401 -18.25977,57.9104 -5.25977,84.2305 0.53461,1.0823 1.05294,2.0393 1.5625,2.916 4.02614,12.3345 10.3349,25.5764 17.44336,38.502 10.9423,19.897 23.81916,38.8032 33.59766,51.1797 l 0.11719,-0.092 c 1.35872,1.5198 2.81877,2.9476 4.4082,4.2441 22.3099,18.2 59.85031,15.3805 86.82031,15.4805 66.5899,0.24 133.17929,-1.9807 199.77929,-1.8008 68.09,0.1901 136.5116,1.1899 204.6016,-1.1602 37.55,0.37 75.1098,0.091 112.6699,0.4004 32.23,-0.08 65.4101,5.4992 97.4902,0.3692 37.8599,-6.0499 52.4795,-28.4695 73.1895,-57.4395 6.0801,-14.31 14.6294,-27.5591 19.1094,-42.5391 4.06,-11.7901 0.8797,-29.7315 16.0097,-30.3515 60.19,-2.44 120.1006,-15.6293 167.0606,-56.5293 105.0601,-91.49 80.3699,-242.0493 46.9199,-361.3594 -7.1001,-25.31997 -17.6911,-51.73081 -36.3809,-70.79101 -7.3899,-7.53 -19.4082,-11.81086 -28.8281,-4.88086 -10.3301,7.6 -8.5002,27.56125 -8.4102,38.78125 0.2701,32.91002 12.3091,70.79922 24.5391,101.11912 12.4599,30.86 18.2197,59.27 18.9297,92.5801 1.3101,61.4099 -22.2993,124.5504 -72.0195,162.7305 -24.2398,18.61 -53.6508,29.1496 -83.7207,33.7597 -11.83,0.19 -30.1882,9.3002 -32.4082,-5.7597 -2.3499,-15.9401 -2.4712,-30.9089 -7.0313,-46.6289 -28.6401,-135.7101 -196.5097,-163.8905 -311.4297,-137.9805 -31.98,7.21 -65.6804,12.8494 -97.9004,3.1094 -3.8301,-1.16 -18.5297,-5.8107 -22.5898,-11.4707 -1.47,-2.06 -1.5402,-4.249 0.8398,-6.459 9.21,-8.54 21.1307,-15.0494 30.9707,-23.0195 43.78,-35.4499 89.8186,-70.6509 124.4786,-115.6309 39.64,-51.43003 76.4903,-104.00014 94.6503,-167.49024 18.0401,-63.0799 20.1105,-135.29977 3.4805,-199.00977 -8.62,-33.05 -17.2098,-66.28971 -32.3398,-97.09961 -12.7001,-25.84 -28.5309,-49.30031 -44.211,-73.32031 -7.4399,-12.15 -18.3589,-24.14047 -28.7988,-33.73047 -13.75,-12.65 -9.3705,-23.49906 -7.9805,-41.03906 2.5299,-31.73 3.58,-63.57016 2.92,-95.41016 -1.37,-66.39 -5.9892,-131.52945 -27.5391,-194.93945 -13.6807,-40.230309 -44.0757,-90.973926 -88.8477,-91.099608 z m -12.8906,86.589848 c 12.4063,-0.0321 24.2629,4.64453 33.9473,16.94921 20.91,26.58 24.9394,62.36899 25.1894,94.95899 0.28,36.19 -3.4785,71.93031 -9.6484,107.57031 -0.95,5.5 -1.6208,41.4207 -11.8809,33.2207 -12.51,-8.93 -25.3507,-17.39961 -38.6406,-25.0996 -27.3301,-15.84 -56.5191,-27.12094 -85.8691,-38.46094 -17.37,-6.71 -34.6396,-12.96016 -52.2696,-18.91016 -8.55,-1.99 -29.9804,-4.05922 -22.9004,-16.44922 30.17,-52.82 71.2807,-103.20929 120.1407,-139.77929 13.1059,-7.87844 27.8711,-13.96358 41.9316,-14 z M 215.6875,525.52734 c 21.8124,0.008 43.64219,1.56211 65.11719,5.09961 17.33,2.8499 35.67109,6.21946 52.37109,11.68946 8.1701,3.7701 13.33969,3.36968 8.67969,12.92968 -3.06,6.3 -6.58037,12.3611 -9.73047,18.6211 -29.74,58.95 -55.98906,122.52859 -60.03906,189.05859 1.47,13.57 -29.75969,-11.63922 -32.92969,-14.19922 -11.02,-7.61 -20.86164,-15.73039 -31.18164,-24.40039 -24.58,-20.65 -48.81852,-44.17937 -67.22852,-70.60937 -17.34,-24.88 -33.19164,-49.29016 -29.18164,-80.91016 2.92,-30.47 39.78094,-41.5207 64.96094,-45.7207 12.99375,-1.01254 26.07467,-1.56352 39.16211,-1.5586 z m 911.998,106.88477 c 39.4664,0.091 76.8223,8.15586 108.3692,34.11523 29.62,24.37 52.5008,60.97985 52.6308,100.33985 0.29,80.24 -48.8304,151.95929 -133.4804,158.27929 -73.79,5.51 -164.11994,-52.0396 -161.66994,-133.8496 1.25,-41.65 7.14024,-79.7111 36.32034,-111.8711 22.5399,-24.83 55.5902,-45.14969 89.9101,-46.92969 2.6488,-0.0619 5.2889,-0.0901 7.9199,-0.084 z M 622.12305,852.125 c 78.06767,0.75168 150.65547,53.6918 152.04297,137.8418 1.31,80.22 -53.73985,150.8798 -134.83985,160.1894 -75.42,8.6602 -157.27133,-48.3499 -160.86133,-127.75 -3.53,-77.99985 41.95024,-162.67042 127.99024,-169.73042 5.23375,-0.42 10.46346,-0.60089 15.66797,-0.55078 z m 315.94726,131.76953 c 21.35318,0.0993 46.30602,7.17961 50.27539,30.94137 3.32,24.3899 -10.96086,49.2906 -35.38086,55.7207 -25.52,3.94 -56.99023,-1.4193 -63.74023,-30.7793 -4.85,-24.6 10.83031,-47.75113 34.32031,-54.45113 0.0601,-0.08 0.92008,-0.30953 3.08008,-0.76953 0.1599,-0.03 0.3107,-0.0696 0.4707,-0.0996 0.1601,-0.02 0.30875,-0.0308 0.46875,-0.0508 0.27,-0.03 0.53125,-0.0601 0.78125,-0.0801 0.02,0 0.0406,7.2e-4 0.0606,-0.01 1.8501,-0.19 2.81969,-0.25024 3.17969,-0.24024 2.10468,-0.12844 4.27542,-0.19191 6.48437,-0.18164 z m 218.04099,185.05077 c 0.1663,0.011 0.3246,0.035 0.4746,0.07 6.8099,1.81 -5.6795,32.8004 -7.9297,36.9004 -11.8897,26.21 -32.7716,48.8 -55.5117,66.0899 -47.71,36.27 -110.90948,52.8101 -170.09958,51.75 -52.56731,-0.9446 -121.49508,-9.9871 -162.59961,30.1152 -1.99414,-6.5204 -4.8837,-13.3964 -8.72656,-20.1309 -4.54791,-7.9699 -10.47935,-15.7196 -17.89844,-22.1621 11.21853,-1.2163 22.29955,-2.5809 33.13477,-4.0312 122.64,-16.4101 241.58942,-55.1797 350.35942,-114.3496 8.41,-5.61 28.7414,-23.3204 38.2714,-24.2403 0.185,-0.02 0.3592,-0.023 0.5254,-0.012 z m -267.45505,211.2109 c 7.4601,0.06 78.33859,7.5409 45.55859,25.7208 -14.11,7.8201 -32.68986,3.949 -48.00976,7.3789 -13.76,3.08 -26.80901,6.3701 -39.87891,11.9101 -22.8001,9.66 -43.34023,26.2707 -54.74023,48.5606 -4.89769,9.5944 -7.35147,21.686 -6.90235,33.6152 -4.15556,-6.5562 -8.29862,-13.4896 -12.16797,-20.5254 -5.51494,-10.0282 -10.44388,-20.2986 -14.11914,-29.832 3.29839,-3.4273 6.62273,-9.6068 10.69922,-15.1192 8.6099,-11.64 19.15907,-22.6679 30.28907,-31.9179 26.74,-22.2201 55.08158,-30.0509 89.27148,-29.7911 z"
         style="color:#000000;font-style:normal;font-variant:normal;font-weight:normal;font-stretch:normal;font-size:medium;line-height:normal;font-family:sans-serif;font-variant-ligatures:normal;font-variant-position:normal;font-variant-caps:normal;font-variant-numeric:normal;font-variant-alternates:normal;font-feature-settings:normal;text-indent:0;text-align:start;text-decoration:none;text-decoration-line:none;text-decoration-style:solid;text-decoration-color:#000000;letter-spacing:normal;word-spacing:normal;text-transform:none;writing-mode:lr-tb;direction:ltr;text-orientation:mixed;dominant-baseline:auto;baseline-shift:baseline;text-anchor:start;white-space:normal;shape-padding:0;clip-rule:nonzero;display:inline;overflow:visible;visibility:visible;opacity:1;isolation:auto;mix-blend-mode:normal;color-interpolation:sRGB;color-interpolation-filters:linearRGB;solid-color:#000000;solid-opacity:1;vector-effect:none;fill:#000000;fill-opacity:1;fill-rule:nonzero;stroke:none;stroke-width:10;stroke-linecap:butt;stroke-linejoin:miter;stroke-miterlimit:4;stroke-dasharray:none;stroke-dashoffset:0;stroke-opacity:1;color-rendering:auto;image-rendering:auto;shape-rendering:auto;text-rendering:auto;enable-background:accumulate" /><path
         style="fill:#19171e"
         inkscape:connector-curvature="0"
         id="path24"
         d="m 1001.1458,930.643 c 65.92,-22.42 93.58,83.89 28.3799,105.53 -69.09,15.6 -95.78,-86.99 -28.72,-105.41 0.1101,-0.04 0.2301,-0.08 0.3401,-0.12 z" /><path
         style="display:inline;fill:#19171e"
         inkscape:connector-curvature="0"
         id="path16"
         d="m 1412.3558,752.123 c 66.25,-10.14 81.21,94.86 15.0599,106.84 -28.58,5.17 -53.83,-12.69 -60.98,-40.32 -8.52,-32.93 10.99,-60.5 44.08,-66.22 0.3,-0.05 0.6101,-0.1 0.92,-0.15 0.1801,-0.03 0.37,-0.06 0.55,-0.09 0.1201,-0.02 0.2501,-0.04 0.3701,-0.06 z" /><path
         style="display:inline;fill:#ffffff"
         inkscape:connector-curvature="0"
         id="path10"
         d="m 1578.1458,231.403 c 0.28,36.19 -3.48,71.93 -9.6499,107.57 -0.9501,5.5 -1.62,41.42 -11.88,33.22 -12.51,-8.93 -25.3501,-17.4 -38.64,-25.1 -27.3301,-15.84 -56.52,-27.12 -85.87,-38.46 -17.37,-6.71 -34.64,-12.96 -52.27,-18.91 -8.55,-1.99 -29.98,-4.06 -22.9,-16.45 30.17,-52.82 71.28,-103.21 120.14,-139.78 24.67,-14.83 55.22,-23.3 75.88,2.95 20.9099,26.58 24.9399,62.37 25.1899,94.96 z" /><path
         style="display:inline;fill:#ffffff"
         inkscape:connector-curvature="0"
         id="path8"
         d="m 1408.1058,752.793 c -0.07,0.01 -0.13,0.02 -0.1801,0.03 0.05,-0.01 0.1101,-0.01 0.1801,-0.03 z m 4.5201,-0.73 c -0.06,0 -3.4401,0.55 -4.51,0.73 0.38,-0.05 1.13,-0.17 2.3999,-0.37 -33.09,5.72 -52.6,33.29 -44.08,66.22 7.15,27.63 32.4,45.49 60.98,40.32 66.15,-11.98 51.1901,-116.98 -15.0599,-106.84 0.15,-0.03 0.2399,-0.05 0.27,-0.06 z m 212.0599,19.35 c 0.29,80.24 -48.83,151.96 -133.48,158.28 -73.79,5.51 -164.12,-52.04 -161.67,-133.85 1.25,-41.65 7.14,-79.71 36.3201,-111.87 22.5399,-24.83 55.59,-45.15 89.9099,-46.93 42.38,-0.9901 82.64,6.34 116.29,34.03 29.62,24.37 52.5,60.98 52.63,100.34 z" /><path
         style="display:inline;fill:#ffffff"
         inkscape:connector-curvature="0"
         id="path6"
         d="m 1001.1458,930.643 c 3.73,-1.31 -4.02,0.96 -4.41,1.18 0.1201,0 1.22,-0.28 4.07,-1.06 -67.06,18.42 -40.37,121.0099 28.72,105.41 65.2,-21.64 37.54,-127.95 -28.38,-105.53 z m 109.02,63.87 c 1.3101,80.22 -53.74,150.8801 -134.84,160.19 -75.42,8.66 -157.27,-48.35 -160.86,-127.75 -3.53,-78 41.95,-162.67 127.99,-169.73 83.74,-6.72 166.23,47.53 167.71,137.29 z" /><path
         style="display:inline;fill:#ffffff"
         inkscape:connector-curvature="0"
         id="path4"
         d="m 669.1758,546.863 c 8.17,3.77 13.34,3.3701 8.6801,12.9301 -3.06,6.3 -6.58,12.36 -9.73,18.62 -29.74,58.95 -55.99,122.53 -60.04,189.06 1.47,13.57 -29.76,-11.64 -32.93,-14.2 -11.02,-7.61 -20.86,-15.73 -31.18,-24.4 -24.58,-20.65 -48.82,-44.18 -67.23,-70.61 -17.34,-24.88 -33.19,-49.29 -29.18,-80.91 2.92,-30.47 39.78,-41.52 64.96,-45.72 34.65,-2.7 69.92,-2.12 104.28,3.54 17.3299,2.8499 35.6699,6.2199 52.3699,11.6899 z" /><path
         style="display:inline;fill:#ffffff"
         inkscape:connector-curvature="0"
         id="path2"
         d="m 1324.3458,1019.383 c 3.3199,24.39 -10.96,49.29 -35.38,55.72 -25.52,3.9399 -56.99,-1.42 -63.74,-30.78 -4.85,-24.6 10.83,-47.75 34.3199,-54.45 -0.1899,0.3 9.5901,-1.21 8.04,-1.25 22.4501,-1.37 52.3801,4.54 56.7601,30.76 z" /></g><path
       inkscape:label="outline"
       inkscape:connector-curvature="0"
       id="path4584"
       transform="translate(336.0004,4.5466)"
       d="m 1195.8984,28.357422 c -9.2922,-0.02608 -19.2027,2.128516 -29.7129,7.009766 -54.54,20.829999 -97.9903,64.289985 -136.1503,107.000002 -19.6899,22.04 -38.56973,45.04914 -56.42973,68.61914 -8.8301,11.67 -30.59049,56.01953 -44.65039,56.51953 -62.7099,2.24 -122.98873,-0.0195 -185.04883,13.23047 -59.84,12.77 -119.92156,29.90054 -172.85156,61.56055 -51.45,30.77998 -95.59938,65.70023 -137.85938,108.24023 -5.23,6.58 -19.32994,28.29023 -28.08984,27.99023 -10.24,-0.34 -22.71938,-5.39015 -32.35938,-8.66015 -27.69,-8.91 -59.34015,-11.42016 -88.16015,-14.41016 -62.54,-6.48 -134.15055,-3.85156 -192.310549,21.39844 -61.34,26.62 -70.509844,86.73164 -46.089844,144.68164 24.71,58.64 70.790783,105.82898 115.300783,149.95898 22.7,22.49 47.25976,43.83102 72.25976,63.79102 11.18,8.93 26.68016,15.07023 28.41016,30.24023 -0.13,15.83 0.52969,31.66003 1.92969,47.41993 5.56,62.52 18.47914,124.52923 48.11914,180.35933 14.72,27.7199 30.20945,56.6598 50.93945,80.4297 14.66,17.53 28.82063,40.2105 48.39063,52.9004 23.92,19.9699 46.98109,37.1104 74.62109,51.9004 25.77,13.78 52.3082,20.3495 79.9082,28.7695 48.43353,11.286 101.85371,10.5447 152.92188,5.7754 10.33001,6.2312 18.32451,15.5871 24.04687,25.6153 4.65752,8.1621 7.74096,16.775 9.37891,24.1152 -0.81526,1.0353 -1.62128,2.0867 -2.40625,3.1738 -17.3,23.9401 -18.25977,57.9104 -5.25977,84.2305 0.53461,1.0823 1.05294,2.0393 1.5625,2.916 4.02614,12.3345 10.3349,25.5764 17.44336,38.502 10.9423,19.897 23.81916,38.8032 33.59766,51.1797 l 0.11719,-0.092 c 1.35872,1.5198 2.81877,2.9476 4.4082,4.2441 22.3099,18.2 59.85031,15.3805 86.82031,15.4805 66.5899,0.24 133.17929,-1.9807 199.77929,-1.8008 68.09,0.1901 136.5116,1.1899 204.6016,-1.1602 37.55,0.37 75.1098,0.091 112.6699,0.4004 32.23,-0.08 65.4101,5.4992 97.4902,0.3692 37.8599,-6.0499 52.4795,-28.4695 73.1895,-57.4395 6.0016,-14.1252 14.4009,-27.22 18.9258,-41.9629 63.191,-2.9449 150.8718,-16.1577 204.6074,-62.959 60.1991,-52.4235 83.4866,-123.3673 86.5254,-193.3457 3.0333,-69.8518 -12.5402,-140.245 -29.6563,-201.2949 -7.1179,-25.38371 -17.8693,-54.22207 -38.748,-78.35742 v -0.58984 l -5.7266,-5.83398 c -7.519,-7.66146 -17.6,-14.08841 -29.7363,-16.81055 -13.1739,-2.95488 -28.4943,-1.08685 -41.5469,8.51562 v 0.002 c -16.1011,11.8457 -19.948,29.85781 -21.1504,40.59179 -1.2427,11.09386 -0.529,20.99865 -0.5,24.62696 v 0.006 c 0.332,40.45632 13.9658,80.94782 26.8985,113.00982 11.1917,27.719 15.9323,51.0844 16.5722,81.1035 1.1219,52.588 -19.447,105.6429 -59.3203,136.2617 -18.592,14.2726 -42.3473,23.1801 -67.8125,27.2246 -2.6289,0.1161 -25.7204,-0.4931 -31.664,-0.4004 -0.8467,-6.5051 -1.9716,-13.0138 -3.8985,-19.6562 -28.6401,-135.7101 -196.5097,-163.8905 -311.4297,-137.9805 -31.98,7.21 -65.6804,12.8494 -97.9004,3.1094 -3.8301,-1.16 -18.5297,-5.8107 -22.5898,-11.4707 -1.47,-2.06 -1.5402,-4.249 0.8398,-6.459 9.21,-8.54 21.1307,-15.0494 30.9707,-23.0195 43.78,-35.4499 89.8186,-70.6509 124.4786,-115.6309 39.64,-51.43005 76.4903,-104.00016 94.6503,-167.49026 18.0401,-63.0799 20.1105,-135.29977 3.4805,-199.00977 -8.62,-33.05 -17.2098,-66.28971 -32.3398,-97.09961 -12.7001,-25.84 -28.5309,-49.30031 -44.211,-73.32031 -7.4399,-12.15 -18.3589,-24.14047 -28.7988,-33.73047 -13.75,-12.65 -9.3705,-23.49906 -7.9805,-41.03906 2.5299,-31.73 3.58,-63.57016 2.92,-95.41016 -1.37,-66.39 -5.9892,-131.52945 -27.5391,-194.93945 -13.6807,-40.230304 -44.0757,-90.973926 -88.8477,-91.099608 z"
       style="color:#000000;font-style:normal;font-variant:normal;font-weight:normal;font-stretch:normal;font-size:medium;line-height:normal;font-family:sans-serif;font-variant-ligatures:normal;font-variant-position:normal;font-variant-caps:normal;font-variant-numeric:normal;font-variant-alternates:normal;font-feature-settings:normal;text-indent:0;text-align:start;text-decoration:none;text-decoration-line:none;text-decoration-style:solid;text-decoration-color:#000000;letter-spacing:normal;word-spacing:normal;text-transform:none;writing-mode:lr-tb;direction:ltr;text-orientation:mixed;dominant-baseline:auto;baseline-shift:baseline;text-anchor:start;white-space:normal;shape-padding:0;clip-rule:nonzero;display:inline;overflow:visible;visibility:visible;opacity:1;isolation:auto;mix-blend-mode:normal;color-interpolation:sRGB;color-interpolation-filters:linearRGB;solid-color:#000000;solid-opacity:1;vector-effect:none;fill:#000000;fill-opacity:1;fill-rule:nonzero;stroke:none;stroke-width:10;stroke-linecap:butt;stroke-linejoin:miter;stroke-miterlimit:4;stroke-dasharray:none;stroke-dashoffset:0;stroke-opacity:1;color-rendering:auto;image-rendering:auto;shape-rendering:auto;text-rendering:auto;enable-background:accumulate" /><g
       inkscape:label="silk"
       id="g4750"><path
         d="m 1324.3458,1019.383 c 3.3199,24.39 -10.96,49.29 -35.38,55.72 -25.52,3.9399 -56.99,-1.42 -63.74,-30.78 -4.85,-24.6 10.83,-47.75 34.3199,-54.45 -0.1899,0.3 9.5901,-1.21 8.04,-1.25 22.4501,-1.37 52.3801,4.54 56.7601,30.76 z"
         id="path4676"
         inkscape:connector-curvature="0"
         style="display:inline;fill:#ffffff"
         inkscape:label="nose" /><path
         d="m 1578.1458,231.403 c 0.28,36.19 -3.48,71.93 -9.6499,107.57 -0.9501,5.5 -1.62,41.42 -11.88,33.22 -12.51,-8.93 -25.3501,-17.4 -38.64,-25.1 -27.3301,-15.84 -56.52,-27.12 -85.87,-38.46 -17.37,-6.71 -34.64,-12.96 -52.27,-18.91 -8.55,-1.99 -29.98,-4.06 -22.9,-16.45 30.17,-52.82 71.28,-103.21 120.14,-139.78 24.67,-14.83 55.22,-23.3 75.88,2.95 20.9099,26.58 24.9399,62.37 25.1899,94.96 z"
         id="path4649"
         inkscape:connector-curvature="0"
         style="display:inline;fill:#f9ffff;fill-opacity:1"
         inkscape:label="right ear" /><path
         d="m 669.1758,546.863 c 8.17,3.77 13.34,3.3701 8.6801,12.9301 -3.06,6.3 -6.58,12.36 -9.73,18.62 -29.74,58.95 -55.99,122.53 -60.04,189.06 1.47,13.57 -29.76,-11.64 -32.93,-14.2 -11.02,-7.61 -20.86,-15.73 -31.18,-24.4 -24.58,-20.65 -48.82,-44.18 -67.23,-70.61 -17.34,-24.88 -33.19,-49.29 -29.18,-80.91 2.92,-30.47 39.78,-41.52 64.96,-45.72 34.65,-2.7 69.92,-2.12 104.28,3.54 17.3299,2.8499 35.6699,6.2199 52.3699,11.6899 z"
         id="path4652"
         inkscape:connector-curvature="0"
         style="display:inline;fill:#ffffff"
         inkscape:label="left ear" /><path
         style="display:inline;fill:#ffffff"
         d="m 1127.6855,632.41211 c -2.631,-0.006 -5.2711,0.0221 -7.9199,0.084 -34.3199,1.78 -67.3702,22.09969 -89.9101,46.92969 -29.1801,32.16 -35.07034,70.2211 -36.32034,111.8711 -2.45,81.81 87.87994,139.3596 161.66994,133.8496 84.65,-6.32 133.7704,-78.03929 133.4804,-158.27929 -0.13,-39.36 -23.0108,-75.96985 -52.6308,-100.33985 -31.5469,-25.95937 -68.9028,-34.02434 -108.3692,-34.11523 z m -42.3554,114.47656 c 0.959,0.003 1.9047,0.0302 2.8379,0.084 6e-4,3e-5 0,-4e-5 0,0 14.9296,0.86036 26.5393,8.10342 34.3594,18.47656 0.9775,1.2967 1.8956,2.64307 2.7539,4.03125 5.1496,8.32907 8.1358,18.1914 8.7617,28.21289 0.1043,1.67025 0.143,3.34478 0.1153,5.01758 -0.3879,23.4191 -13.8035,46.46383 -42.7442,51.70508 -21.435,3.8775 -40.9974,-5.19954 -52.4551,-21.63672 -0.9548,-1.36977 -1.8527,-2.79101 -2.6914,-4.25977 -2.5159,-4.40626 -4.4933,-9.2432 -5.834,-14.42383 -1.8637,-7.20343 -2.3863,-14.15011 -1.7187,-20.66797 0.1907,-1.86224 0.4779,-3.68839 0.8594,-5.47656 4.3871,-20.56388 21.156,-35.96297 44.9394,-40.07422 -1.2699,0.2 -2.0204,0.31914 -2.4004,0.36914 1.0699,-0.18 4.4498,-0.73047 4.5098,-0.73047 -0.03,0.01 -0.1195,0.0305 -0.2695,0.0606 3.1054,-0.47531 6.0976,-0.69673 8.9746,-0.6875 z"
         transform="translate(336.0004,4.5466)"
         id="path4655"
         inkscape:connector-curvature="0"
         inkscape:label="right eye" /><path
         style="display:inline;fill:#ffffff"
         d="m 622.12305,852.125 c -5.20451,-0.0501 -10.43422,0.13078 -15.66797,0.55078 -86.04,7.06 -131.52024,91.73047 -127.99024,169.73042 3.59,79.4001 85.44133,136.4101 160.86133,127.75 81.1,-9.3099 136.14995,-79.9694 134.83985,-160.1894 -1.3875,-84.15 -73.9753,-137.09012 -152.04297,-137.8418 z m 60.50781,70.88477 c 52.80389,-0.14384 69.98212,89.00593 10.89453,108.61723 -31.30719,7.0689 -53.90819,-10.1303 -63.02539,-32.76958 -0.3144,-0.78063 -0.61239,-1.56657 -0.89453,-2.35937 -3.94998,-11.09922 -4.71848,-23.31518 -1.76953,-34.5293 0.42128,-1.60202 0.91758,-3.18332 1.49218,-4.73828 0.28731,-0.77748 0.5937,-1.5491 0.91993,-2.3125 0.65245,-1.5268 1.38287,-3.02317 2.19336,-4.48438 6.07861,-10.95907 16.64609,-19.89961 32.36328,-24.21679 -2.85,0.78 -3.94826,1.06054 -4.06836,1.06054 0.39,-0.22 8.1382,-2.49164 4.4082,-1.18164 6.18,-2.10187 12.02386,-3.07106 17.48633,-3.08593 z"
         transform="translate(336.0004,4.5466)"
         id="path4662"
         inkscape:connector-curvature="0"
         inkscape:label="left eye" /><path
         style="color:#000000;font-style:normal;font-variant:normal;font-weight:normal;font-stretch:normal;font-size:medium;line-height:normal;font-family:sans-serif;font-variant-ligatures:normal;font-variant-position:normal;font-variant-caps:normal;font-variant-numeric:normal;font-variant-alternates:normal;font-feature-settings:normal;text-indent:0;text-align:start;text-decoration:none;text-decoration-line:none;text-decoration-style:solid;text-decoration-color:#000000;letter-spacing:normal;word-spacing:normal;text-transform:none;writing-mode:lr-tb;direction:ltr;text-orientation:mixed;dominant-baseline:auto;baseline-shift:baseline;text-anchor:start;white-space:normal;shape-padding:0;clip-rule:nonzero;display:inline;overflow:visible;visibility:visible;opacity:1;isolation:auto;mix-blend-mode:normal;color-interpolation:sRGB;color-interpolation-filters:linearRGB;solid-color:#000000;solid-opacity:1;vector-effect:none;fill:#ffffff;fill-opacity:1;fill-rule:nonzero;stroke:none;stroke-width:10;stroke-linecap:butt;stroke-linejoin:miter;stroke-miterlimit:4;stroke-dasharray:none;stroke-dashoffset:0;stroke-opacity:1;color-rendering:auto;image-rendering:auto;shape-rendering:auto;text-rendering:auto;enable-background:accumulate"
         d="m 1237.2422,176.88867 -10.832,2.13867 0.4355,0.60547 10.5645,-1.97851 c -0.056,-0.25518 -0.111,-0.51081 -0.168,-0.76563 z m -81.1309,992.05663 c -0.1662,-0.011 -0.3404,-0.01 -0.5254,0.012 -9.53,0.9199 -29.8614,18.6303 -38.2714,24.2403 -108.77,59.1699 -227.71942,97.9395 -350.35942,114.3496 -10.83522,1.4503 -21.91624,2.8149 -33.13477,4.0312 7.41909,6.4425 13.35053,14.1922 17.89844,22.1621 3.84286,6.7345 6.73242,13.6105 8.72656,20.1309 41.10453,-40.1023 110.0323,-31.0598 162.59961,-30.1152 59.1901,1.0601 122.38958,-15.48 170.09958,-51.75 22.7401,-17.2899 43.6222,-39.8799 55.5117,-66.0899 2.2503,-4.1 14.7396,-35.0904 7.9297,-36.9004 -0.15,-0.035 -0.3083,-0.059 -0.4746,-0.07 z m -267.45505,211.2109 c -34.1899,-0.2597 -62.53148,7.571 -89.27148,29.7911 -11.13,9.25 -21.67917,20.2779 -30.28907,31.9179 -4.07649,5.5124 -7.40083,11.6919 -10.69922,15.1192 3.67526,9.5334 8.6042,19.8038 14.11914,29.832 3.86935,7.0358 8.01241,13.9692 12.16797,20.5254 -0.44912,-11.9292 2.00466,-24.0208 6.90235,-33.6152 11.4,-22.2899 31.94013,-38.9006 54.74023,-48.5606 13.0699,-5.54 26.11891,-8.8301 39.87891,-11.9101 15.3199,-3.4299 33.89976,0.4412 48.00976,-7.3789 32.78,-18.1799 -38.09849,-25.6608 -45.55859,-25.7208 z"
         transform="translate(336.0004,4.5466)"
         id="path4669"
         inkscape:connector-curvature="0"
         inkscape:label="feet" /><path
         style="color:#000000;font-style:normal;font-variant:normal;font-weight:normal;font-stretch:normal;font-size:medium;line-height:normal;font-family:sans-serif;font-variant-ligatures:normal;font-variant-position:normal;font-variant-caps:normal;font-variant-numeric:normal;font-variant-alternates:normal;font-feature-settings:normal;text-indent:0;text-align:start;text-decoration:none;text-decoration-line:none;text-decoration-style:solid;text-decoration-color:#000000;letter-spacing:normal;word-spacing:normal;text-transform:none;writing-mode:lr-tb;direction:ltr;text-orientation:mixed;dominant-baseline:auto;baseline-shift:baseline;text-anchor:start;white-space:normal;shape-padding:0;clip-rule:nonzero;display:none;overflow:visible;visibility:visible;opacity:1;isolation:auto;mix-blend-mode:normal;color-interpolation:sRGB;color-interpolation-filters:linearRGB;solid-color:#000000;solid-opacity:1;vector-effect:none;fill:#ffffff;fill-opacity:1;fill-rule:nonzero;stroke:none;stroke-width:25;stroke-linecap:butt;stroke-linejoin:miter;stroke-miterlimit:4;stroke-dasharray:none;stroke-dashoffset:0;stroke-opacity:1;color-rendering:auto;image-rendering:auto;shape-rendering:auto;text-rendering:auto;enable-background:accumulate"
         d="m 1772.0195,920.42969 c -6.4214,-0.14783 -13.2958,1.59071 -19.1035,5.86328 -9.6567,7.10453 -12.1355,17.85892 -13.1269,26.70898 -0.9913,8.85005 -0.4148,17.25059 -0.375,22.24024 v 0.002 c 0.2945,35.87941 12.9303,74.66231 25.4472,105.69341 11.9635,29.6305 17.3409,56.1445 18.0235,88.166 1.2379,58.0256 -21.1786,117.261 -67.1348,152.5508 -22.1273,16.9874 -49.4333,26.9105 -77.8242,31.2871 -7.1179,0.3238 -24.5005,0.986 -31.4004,1.3672 0.2149,1.7467 0.4405,3.4992 0.7012,5.2675 2.22,15.0599 20.5782,5.9497 32.4082,5.7598 30.0699,-4.6102 59.4809,-15.1497 83.7207,-33.7598 49.7202,-38.1801 73.3296,-101.3206 72.0195,-162.7304 -0.71,-33.3101 -6.4698,-61.7201 -18.9297,-92.5801 -12.23,-30.3199 -24.269,-68.2091 -24.5391,-101.11917 -0.09,-11.22 -1.9199,-31.18125 8.4102,-38.78125 9.4199,-6.93 21.4382,-2.64914 28.8281,4.88086 18.6898,19.0602 29.2808,45.47108 36.3809,70.79106 33.45,119.3101 58.1402,269.8694 -46.9199,361.3594 -46.96,40.9 -106.8706,54.0893 -167.0606,56.5293 -8.8182,0.3613 -11.4086,6.6156 -12.8457,14.0976 3.4572,-1.0611 13.3593,-1.5709 13.3613,-1.6113 61.6743,-2.5009 124.8325,-16.111 174.7579,-59.5937 55.4567,-48.2937 76.8024,-112.8731 79.6796,-179.1309 2.8772,-66.2578 -12.0553,-134.828 -28.9335,-195.0293 -7.3624,-26.25576 -18.4118,-54.67178 -39.4903,-76.16802 v -0.002 -0.002 c -5.2383,-5.33758 -11.9071,-9.5254 -19.8398,-11.30469 -1.9832,-0.44482 -4.0744,-0.70268 -6.2149,-0.75195 z"
         id="path4703"
         inkscape:connector-curvature="0"
         transform="translate(336.0004,4.5466)"
         inkscape:label="tail" /><path
         style="color:#000000;font-style:normal;font-variant:normal;font-weight:normal;font-stretch:normal;font-size:medium;line-height:normal;font-family:sans-serif;font-variant-ligatures:normal;font-variant-position:normal;font-variant-caps:normal;font-variant-numeric:normal;font-variant-alternates:normal;font-feature-settings:normal;text-indent:0;text-align:start;text-decoration:none;text-decoration-line:none;text-decoration-style:solid;text-decoration-color:#000000;letter-spacing:normal;word-spacing:normal;text-transform:none;writing-mode:lr-tb;direction:ltr;text-orientation:mixed;dominant-baseline:auto;baseline-shift:baseline;text-anchor:start;white-space:normal;shape-padding:0;clip-rule:nonzero;display:none;overflow:visible;visibility:visible;opacity:1;isolation:auto;mix-blend-mode:normal;color-interpolation:sRGB;color-interpolation-filters:linearRGB;solid-color:#000000;solid-opacity:1;vector-effect:none;fill:#fffffd;fill-opacity:1;fill-rule:nonzero;stroke:none;stroke-width:40;stroke-linecap:butt;stroke-linejoin:miter;stroke-miterlimit:4;stroke-dasharray:none;stroke-dashoffset:0;stroke-opacity:1;color-rendering:auto;image-rendering:auto;shape-rendering:auto;text-rendering:auto;enable-background:accumulate"
         d="m 1769.7734,900.39453 c -9.683,0.23634 -19.7294,3.18151 -28.7031,9.7832 v 0.002 c -16.1011,11.8457 -19.948,29.85781 -21.1504,40.59179 -1.2427,11.09386 -0.529,20.99865 -0.5,24.62696 v 0.006 c 0.332,40.45632 13.9658,80.94782 26.8985,113.00982 11.1917,27.719 15.9323,51.0844 16.5722,81.1035 1.1219,52.588 -19.447,105.6429 -59.3203,136.2617 -18.592,14.2726 -42.3473,23.1801 -67.8125,27.2246 -2.6289,0.1161 -25.7204,-0.4931 -31.664,-0.4004 0.9347,7.182 1.5277,14.3595 2.4316,21.7051 6.8999,-0.3812 24.2825,-1.0434 31.4004,-1.3672 28.3909,-4.3766 55.6969,-14.2997 77.8242,-31.2871 45.9562,-35.2898 68.3727,-94.5252 67.1348,-152.5508 -0.6826,-32.0215 -6.06,-58.5355 -18.0235,-88.166 -12.5169,-31.0311 -25.1527,-69.8139 -25.4472,-105.69338 v -0.002 c -0.04,-4.98965 -0.6163,-13.39019 0.375,-22.24024 0.9914,-8.85006 3.4702,-19.60445 13.1269,-26.70898 7.7436,-5.69676 17.3856,-6.89063 25.3184,-5.11133 7.9327,1.77929 14.6015,5.96711 19.8398,11.30469 v 0.002 0.002 c 21.0785,21.49624 32.1279,49.91226 39.4903,76.16794 16.8782,60.2013 31.8107,128.7715 28.9335,195.0293 -2.8772,66.2578 -24.2229,130.8372 -79.6796,179.1309 -49.9254,43.4827 -113.0836,57.0928 -174.7579,59.5937 0,0.04 -9.9041,0.5502 -13.3613,1.6113 -1.0286,5.3554 -1.4703,11.3355 -3.164,16.2539 -0.058,0.1935 -0.1244,0.3833 -0.1836,0.5762 63.191,-2.9449 150.8718,-16.1577 204.6074,-62.959 60.1991,-52.4235 83.4866,-123.3673 86.5254,-193.3457 3.0333,-69.8518 -12.5402,-140.245 -29.6563,-201.2949 -7.1179,-25.38368 -17.8693,-54.22204 -38.748,-78.35739 v -0.58984 l -5.7266,-5.83398 c -7.519,-7.66146 -17.6,-14.08841 -29.7363,-16.81055 -4.1169,-0.9234 -8.4424,-1.37501 -12.8438,-1.26758 z"
         id="path4719"
         inkscape:connector-curvature="0"
         transform="translate(336.0004,4.5466)"
         inkscape:label="wider tail" /><path
         style="color:#000000;font-style:normal;font-variant:normal;font-weight:normal;font-stretch:normal;font-size:medium;line-height:normal;font-family:sans-serif;font-variant-ligatures:normal;font-variant-position:normal;font-variant-caps:normal;font-variant-numeric:normal;font-variant-alternates:normal;font-feature-settings:normal;text-indent:0;text-align:start;text-decoration:none;text-decoration-line:none;text-decoration-style:solid;text-decoration-color:#000000;letter-spacing:normal;word-spacing:normal;text-transform:none;writing-mode:lr-tb;direction:ltr;text-orientation:mixed;dominant-baseline:auto;baseline-shift:baseline;text-anchor:start;white-space:normal;shape-padding:0;clip-rule:nonzero;display:inline;overflow:visible;visibility:visible;opacity:1;isolation:auto;mix-blend-mode:normal;color-interpolation:sRGB;color-interpolation-filters:linearRGB;solid-color:#000000;solid-opacity:1;vector-effect:none;fill:#ffffff;fill-opacity:1;fill-rule:nonzero;stroke:none;stroke-width:25;stroke-linecap:butt;stroke-linejoin:miter;stroke-miterlimit:4;stroke-dasharray:none;stroke-dashoffset:0;stroke-opacity:1;color-rendering:auto;image-rendering:auto;shape-rendering:auto;text-rendering:auto;enable-background:accumulate"
         d="m 1771.4199,900.38086 c -0.5475,-0.004 -1.0963,2.4e-4 -1.6465,0.0137 -9.683,0.23634 -19.7294,3.18151 -28.7031,9.7832 v 0.002 c -16.1011,11.8457 -19.948,29.85781 -21.1504,40.59179 -1.2427,11.09386 -0.529,20.99865 -0.5,24.62696 v 0.006 c 0.332,40.45629 13.9658,80.94779 26.8985,113.00979 11.1917,27.719 15.9323,51.0844 16.5722,81.1035 1.1219,52.588 -19.447,105.6429 -59.3203,136.2617 -18.592,14.2726 -42.3473,23.1801 -67.8125,27.2246 -2.6289,0.1161 -25.7204,-0.4931 -31.664,-0.4004 0.9347,7.182 1.5277,14.3595 2.4316,21.7051 0.2149,1.7467 0.4405,3.4993 0.7012,5.2676 2.22,15.0599 20.5782,5.9496 32.4082,5.7597 30.0699,-4.6102 59.4809,-15.1496 83.7207,-33.7597 49.7202,-38.1801 73.3296,-101.3207 72.0195,-162.7305 -0.71,-33.3101 -6.4698,-61.7201 -18.9297,-92.5801 -12.23,-30.3199 -24.269,-68.209 -24.5391,-101.11911 -0.09,-11.22 -1.9199,-31.18125 8.4102,-38.78125 9.4199,-6.93 21.4382,-2.64914 28.8281,4.88086 18.6898,19.0602 29.2808,45.47104 36.3809,70.791 33.45,119.3101 58.1402,269.8694 -46.9199,361.3594 -46.96,40.9 -106.8706,54.0893 -167.0606,56.5293 -8.8182,0.3613 -11.4086,6.6156 -12.8457,14.0976 -1.0286,5.3554 -1.4703,11.3355 -3.164,16.2539 -0.058,0.1935 -0.1244,0.3833 -0.1836,0.5762 63.191,-2.9449 150.8718,-16.1577 204.6074,-62.959 60.1991,-52.4235 83.4866,-123.3673 86.5254,-193.3457 3.0333,-69.8518 -12.5402,-140.245 -29.6563,-201.2949 -7.1179,-25.38366 -17.8693,-54.22206 -38.748,-78.35741 v -0.58984 l -5.7266,-5.83398 c -7.519,-7.66146 -17.6,-14.08841 -29.7363,-16.81055 -3.6023,-0.80798 -7.3645,-1.25415 -11.1973,-1.28125 z"
         transform="translate(336.0004,4.5466)"
         id="path4726"
         inkscape:connector-curvature="0"
         sodipodi:nodetypes="ccccccccccccccccccccccccccccsccccccc"
         inkscape:label="full tail" /></g></g></svg>